<?xml version="1.0" encoding="utf-8"?>
<!-- Generator: Adobe Illustrator 21.0.0, SVG Export Plug-In . SVG Version: 6.00 Build 0)  -->
<svg version="1.1" id="Layer_1" xmlns="http://www.w3.org/2000/svg" xmlns:xlink="http://www.w3.org/1999/xlink" x="0px" y="0px"
	 viewBox="0 0 100 100" style="enable-background:new 0 0 100 100;" xml:space="preserve">
<style type="text/css">
	.st0{fill:#301F12;}
	.st1{fill:#563E2E;}
	.st2{fill:#008895;}
	.st3{fill:#49C1C2;}
	.st4{fill:#01B4B3;}
	.st5{fill:#056378;}
	.st6{opacity:0.2;}
	.st7{opacity:0.2;fill:#056378;enable-background:new    ;}
	.st8{fill:#029A9A;}
	.st9{fill:#008E88;}
	.st10{fill:#12A1A4;}
	.st11{fill:#B8E3EC;}
	.st12{fill:#CAE9F0;}
</style>
<g id="XMLID_38747_">
	<g id="XMLID_38798_">
		<polygon id="XMLID_38800_" class="st0" points="91.9,51.8 95.8,49.6 95.8,47.4 91.9,49.6 		"/>
		<polygon id="XMLID_38799_" class="st1" points="91.9,49.6 88,47.4 88,49.6 91.9,51.8 		"/>
	</g>
	<g id="XMLID_38795_">
		<polygon id="XMLID_38797_" class="st0" points="8.1,76.8 12,74.5 12,72.4 8.1,74.6 		"/>
		<polygon id="XMLID_38796_" class="st1" points="8.1,74.6 4.2,72.4 4.2,74.5 8.1,76.8 		"/>
	</g>
	<g id="XMLID_38792_">
		<polygon id="XMLID_38794_" class="st0" points="28.4,88.5 32.3,86.2 32.3,84.1 28.4,86.3 		"/>
		<polygon id="XMLID_38793_" class="st1" points="28.4,86.3 24.5,84.1 24.5,86.2 28.4,88.5 		"/>
	</g>
	<g id="XMLID_38748_">
		<g id="XMLID_38782_">
			<polygon id="XMLID_38791_" class="st2" points="70,22.7 70,32.6 88.4,43.2 88.4,33.4 			"/>
			<polygon id="XMLID_38790_" class="st3" points="71.6,15.1 64.2,19.4 88.4,33.4 95.8,29.1 			"/>
			<polyline id="XMLID_42121_" class="st4" points="71.6,15.1 64.2,19.4 88.4,33.4 			"/>
			<polygon id="XMLID_38789_" class="st5" points="95.8,45.2 95.8,29.1 88.4,33.4 88.4,49.5 			"/>
			<g id="XMLID_38787_">
				<polygon id="XMLID_38788_" class="st5" points="88.4,43.7 35.8,74.1 35.8,79.9 88.4,49.5 				"/>
			</g>
			<g id="XMLID_42118_" class="st6">
				<polyline id="XMLID_42120_" class="st5" points="88.4,43.7 35.8,74.1 35.8,79.9 				"/>
			</g>
			<g id="XMLID_38785_">
				<polygon id="XMLID_38786_" class="st0" points="95.8,45.2 28.4,84.2 28.4,86.3 95.8,47.4 				"/>
			</g>
			<g id="XMLID_38783_">
				<polygon id="XMLID_38784_" class="st1" points="4.2,70.2 28.4,84.2 28.4,86.3 4.2,72.4 				"/>
			</g>
		</g>
		<polygon id="XMLID_38781_" class="st3" points="68.4,13.9 64.2,11.5 11.6,41.9 15.8,44.3 		"/>
		<polyline id="XMLID_42116_" class="st4" points="11.6,41.9 15.8,44.3 68.4,13.9 		"/>
		<polygon id="XMLID_38780_" class="st2" points="17.4,58.1 11.6,54.8 11.6,41.9 15.8,44.3 		"/>
		<polygon id="XMLID_38779_" class="st5" points="68.4,13.9 15.8,44.3 17.4,58.1 70,27.7 		"/>
		<polyline id="XMLID_42115_" class="st7" points="17.4,58.1 70,27.7 68.4,13.9 		"/>
		<g id="XMLID_38771_">
			<g id="XMLID_38777_">
				<polygon id="XMLID_38778_" class="st4" points="89.1,38.8 70,27.7 43.7,42.9 62.8,53.9 				"/>
			</g>
			<polygon class="st7" points="65.9,34.2 65.9,52.1 81.9,42.9 81.9,34.6 81.2,34.2 			"/>
			<g id="XMLID_38772_">
				<g id="XMLID_38775_">
					<polygon id="XMLID_38776_" class="st8" points="89.1,38.8 89.1,43.6 62.8,58.8 62.8,53.9 					"/>
				</g>
				<g id="XMLID_38773_">
					<polygon id="XMLID_38774_" class="st9" points="89.1,44.1 89.1,43.6 62.8,58.8 62.8,59.3 					"/>
				</g>
			</g>
		</g>
		<g id="XMLID_38755_">
			<g id="XMLID_38769_">
				<polygon id="XMLID_38770_" class="st4" points="62.8,53.9 43.7,42.9 17.4,58.1 36.5,69.1 				"/>
			</g>
			<polygon class="st7" points="35.8,47.5 17.4,58.1 35.8,68.7 			"/>
			<g id="XMLID_38767_">
				<polygon id="XMLID_38768_" class="st8" points="62.8,53.9 43.7,42.9 43.3,43.2 62.4,54.2 				"/>
			</g>
			<g id="XMLID_38763_">
				<polygon id="XMLID_38766_" class="st10" points="36.5,74 19.7,64.3 19.7,59.4 36.5,69.1 				"/>
				<g id="XMLID_38764_">
					<polygon id="XMLID_38765_" class="st9" points="19.7,64.8 19.7,64.3 36.5,74 36.5,74.5 					"/>
				</g>
			</g>
			<g id="XMLID_38756_">
				<g id="XMLID_38761_">
					<polygon id="XMLID_38762_" class="st8" points="62.8,53.9 62.8,58.8 36.5,74 36.5,69.1 					"/>
				</g>
				<g id="XMLID_38759_">
					<polygon id="XMLID_38760_" class="st9" points="62.8,53.9 62.4,54.2 62.4,59 62.8,58.8 					"/>
				</g>
				<g id="XMLID_38757_">
					<polygon id="XMLID_38758_" class="st9" points="62.8,59.3 62.8,58.8 36.5,74 36.5,74.5 					"/>
				</g>
			</g>
		</g>
		<g id="XMLID_38752_">
			<path id="XMLID_38754_" class="st11" d="M81.9,34.2c-0.6,0.5-2.2-3.4-3-8.1c-0.3-1.6-1-3.3-1.2-5.1c-0.2-1.9,1.2-3.8,1.2-3.8
				c0.1-0.1,0.6-0.1,0.7,0.4c0,0,0.6,5.6,1.2,9.2C81.5,30.2,82.1,34,81.9,34.2z"/>
			<path id="XMLID_38753_" class="st12" d="M65.9,35.5c0,0.3,0.3,0.6,0.6,0.5c1.3-0.3,5.7-1.1,7.5-1.1c2.9,0,6-0.3,7.3-0.3
				c0.3,0,0.6-0.2,0.6-0.5c0-1.6-2-4.2-2.7-8.1c-0.2-1.4-0.1-4.2-0.2-5.4c-0.1-1.7,0.2-2.6,0.3-3.4c0-0.3-0.3-0.4-0.5-0.3
				c-1.3,0.8-4.3,2.1-6.4,2.7c-1.3,0.4-3.6,0.5-4.2,0.6c-1.4,0.2-2.4,0.7-3.1,1.4c-0.4,0.4-0.2,1.3-0.1,1.6c0.4,0.9,0.8,2.7,1,5.8
				C66.2,32.1,65.9,34.4,65.9,35.5z"/>
		</g>
		<polygon id="XMLID_38751_" class="st2" points="28.4,68 4.2,54.1 4.2,70.2 28.4,84.2 		"/>
		<polygon id="XMLID_38750_" class="st3" points="11.6,49.8 4.2,54.1 28.4,68 35.8,63.7 		"/>
		<polyline id="XMLID_42117_" class="st4" points="28.4,68 35.8,63.7 11.6,49.8 		"/>
		<polygon id="XMLID_38749_" class="st5" points="35.8,79.9 35.8,63.7 28.4,68 28.4,84.2 		"/>
		<polygon id="XMLID_42111_" class="st7" points="35.8,79.9 35.8,63.7 28.4,68 28.4,84.2 		"/>
	</g>
</g>
</svg>
