<?xml version="1.0" encoding="utf-8"?>
<!-- Generator: Adobe Illustrator 20.1.0, SVG Export Plug-In . SVG Version: 6.00 Build 0)  -->
<svg version="1.1" id="Layer_1" xmlns="http://www.w3.org/2000/svg" xmlns:xlink="http://www.w3.org/1999/xlink" x="0px" y="0px"
	 viewBox="0 0 100 100" style="enable-background:new 0 0 100 100;" xml:space="preserve">
<style type="text/css">
	.st0{fill:#FFFFFF;}
	.st1{fill:#E8E7E7;}
	.st2{opacity:0.2;fill:#D1D2D8;}
	.st3{fill:#D1D2D8;}
	.st4{fill:#C5C6C7;}
	.st5{fill:#AEAEAE;}
	.st6{fill:#B0B3B5;}
	.st7{fill:#DDDFDE;}
	.st8{fill:#DBDBD9;}
	.st9{fill:#E4E4E3;}
	.st10{fill:#EFEFEF;}
	.st11{fill:#ECECEE;}
	.st12{fill:#F7F8F9;}
	.st13{fill:#41B349;}
	.st14{fill:#80C576;}
	.st15{fill:#C23728;}
	.st16{fill:#CD483C;}
	.st17{fill:#C06B2A;}
	.st18{fill:#CE7C43;}
	.st19{fill:#7C8187;}
	.st20{opacity:0.3;fill:#7C8187;}
	.st21{fill:#C2C2C2;}
	.st22{fill:#777576;}
	.st23{fill:#A4A3A3;}
	.st24{fill:#636467;}
	.st25{fill:#595A5B;}
	.st26{fill:#9A735A;}
	.st27{fill:#59595C;}
	.st28{fill:#C29C77;}
	.st29{opacity:0.2;fill:#C29C77;}
	.st30{fill:#474948;}
	.st31{opacity:0.3;fill:#515352;}
	.st32{fill:#575858;}
	.st33{opacity:0.2;fill:#515352;}
	.st34{fill:#515352;}
	.st35{fill:#3A3B3A;}
	.st36{fill:#72B1CB;}
	.st37{fill:#5F8FA9;}
	.st38{fill:#5988A6;}
	.st39{fill:#3C6984;}
	.st40{fill:#DFDFDF;}
	.st41{fill:#D7D7D6;}
	.st42{opacity:0.8;fill:#DFDFDF;}
	.st43{fill:#EEBE69;}
	.st44{fill:#FFCD80;}
	.st45{fill:#D0D1D1;}
	.st46{fill:#DCDCDB;}
	.st47{fill:#C6C4C3;}
	.st48{fill:#74BF45;}
	.st49{fill:#50A647;}
	.st50{fill:#429A45;}
	.st51{fill:#2D2D2D;}
	.st52{fill:#525354;}
	.st53{fill:#6D6F6E;}
	.st54{fill:#AEADAD;}
	.st55{fill:#D2D2D2;}
	.st56{opacity:0.5;fill:#BBBBBB;}
	.st57{fill:#BBBBBB;}
	.st58{opacity:0.2;fill:#444445;}
	.st59{fill:#A19F9F;}
	.st60{fill:#ECEAEA;}
	.st61{fill:#E4E4E4;}
	.st62{fill:#444445;}
	.st63{fill:#404141;}
	.st64{opacity:0.4;fill:#444445;}
	.st65{opacity:0.3;fill:#444445;}
	.st66{fill:#AEABA8;}
	.st67{fill:#888582;}
	.st68{opacity:0.2;fill:#888582;}
	.st69{fill:#5C5653;}
	.st70{fill:#E7E6E7;}
	.st71{fill:#434443;}
	.st72{fill:#1C1E1E;}
	.st73{fill:#252828;}
	.st74{fill:#3A3A3A;}
	.st75{fill:#353535;}
	.st76{fill:#9C9EA0;}
	.st77{fill:#4F504F;}
	.st78{fill:#393A39;}
	.st79{fill:#2A2B2A;}
</style>
<g>
	<g id="XMLID_23_">
		<g id="XMLID_127_">
			<polygon id="XMLID_129_" class="st0" points="60.8,1.8 62,2.5 3.4,36.1 2.3,35.4 			"/>
			<polygon id="XMLID_128_" class="st1" points="62,2.5 62,44.9 3.4,78.5 3.4,36.1 			"/>
			<polyline id="XMLID_16544_" class="st2" points="62,2.5 62,44.9 3.4,78.5 			"/>
		</g>
		<g id="XMLID_122_">
			<g id="XMLID_124_">
				<polygon id="XMLID_126_" class="st1" points="97.7,23.1 97.7,65.5 96.6,66.2 96.6,23.8 				"/>
				<polygon id="XMLID_125_" class="st0" points="62,2.5 60.8,3.2 96.6,23.8 97.7,23.1 				"/>
			</g>
			<polygon id="XMLID_123_" class="st3" points="60.8,3.2 60.8,45.6 96.6,66.2 96.6,23.8 			"/>
			<polyline id="XMLID_16543_" class="st2" points="60.8,3.2 60.8,45.6 96.6,66.2 			"/>
		</g>
		<g id="XMLID_82_">
			<polygon id="XMLID_121_" class="st4" points="17.8,50.8 17.8,73.8 38,85.5 38,62.5 			"/>
			<polygon id="XMLID_120_" class="st5" points="15.6,70.6 4.8,76.8 27.9,90.2 38.7,83.9 			"/>
			<polygon id="XMLID_119_" class="st6" points="38.7,62.1 38.7,85.1 38,85.5 38,62.5 			"/>
			<polygon id="XMLID_118_" class="st4" points="17.8,49.6 17.8,72.7 38,84.3 38,61.3 			"/>
			<g id="XMLID_83_">
				<g id="XMLID_102_">
					<polygon id="XMLID_117_" class="st7" points="36.6,65.6 36.6,84.1 29.4,88.2 29.4,69.8 					"/>
					<polygon id="XMLID_116_" class="st1" points="36.6,65.6 36.6,68.6 29.4,72.7 29.4,69.8 					"/>
					<polygon id="XMLID_115_" class="st1" points="36.6,68.7 36.6,73.4 29.4,77.6 29.4,72.9 					"/>
					<polygon id="XMLID_114_" class="st1" points="36.6,73.6 36.6,82.5 29.4,86.6 29.4,77.7 					"/>
					<polygon id="XMLID_113_" class="st1" points="36.6,82.6 36.6,84.1 29.4,88.2 29.4,86.8 					"/>
					<g id="XMLID_105_">
						<polygon id="XMLID_112_" class="st8" points="34.9,72.4 34.9,73.3 31.3,75.4 31.3,74.5 						"/>
						<polygon id="XMLID_111_" class="st9" points="34.6,73 34.6,73.1 31.6,74.9 31.6,74.7 						"/>
						<g id="XMLID_106_">
							<polygon id="XMLID_110_" class="st8" points="35.7,70.1 35.7,71.4 30.2,74.6 30.2,73.4 							"/>
							<polygon id="XMLID_109_" class="st9" points="35.5,70.7 35.5,71 30.5,73.9 30.5,73.5 							"/>
							<g id="XMLID_107_">
								<path id="XMLID_108_" class="st9" d="M35.5,71.3v-0.1c0,0,0,0,0,0l-0.2,0.1c0,0,0,0,0,0v0.1c0,0,0,0,0,0L35.5,71.3
									C35.4,71.3,35.5,71.3,35.5,71.3z"/>
							</g>
						</g>
					</g>
					<polygon id="XMLID_104_" class="st10" points="18.8,55.4 11.6,59.5 29.4,69.8 36.6,65.6 					"/>
					<polygon id="XMLID_103_" class="st11" points="11.6,59.5 11.6,78 29.4,88.2 29.4,69.8 					"/>
				</g>
				<g id="XMLID_99_">
					<path id="XMLID_101_" class="st12" d="M33.4,78.1L33.4,78.1c0.5,0,0.7,0.5,0.3,1l0,0c-0.2,0.2-0.4,0.4-0.6,0.4l0,0
						c-0.5,0-0.7-0.5-0.3-1l0,0C33,78.3,33.2,78.2,33.4,78.1z"/>
					<path id="XMLID_100_" class="st1" d="M33.4,78.3L33.4,78.3c0.4,0,0.5,0.4,0.2,0.8l0,0c-0.1,0.2-0.3,0.3-0.5,0.3l0,0
						c-0.4,0-0.5-0.4-0.2-0.8l0,0C33,78.4,33.2,78.3,33.4,78.3z"/>
				</g>
				<g id="XMLID_96_">
					<path id="XMLID_98_" class="st12" d="M33.3,80L33.3,80c0.3,0,0.4,0.3,0.2,0.6l0,0c-0.1,0.1-0.2,0.2-0.4,0.2l0,0
						c-0.3,0-0.4-0.3-0.2-0.6l0,0C33.1,80.1,33.2,80,33.3,80z"/>
					<path id="XMLID_97_" class="st1" d="M33.3,80.1L33.3,80.1c0.2,0,0.2,0.2,0.1,0.4l0,0c-0.1,0.1-0.2,0.1-0.2,0.1l0,0
						c-0.2,0-0.2-0.2-0.1-0.4l0,0C33.1,80.2,33.2,80.1,33.3,80.1z"/>
				</g>
				<g id="XMLID_85_">
					<g id="XMLID_93_">
						<path id="XMLID_95_" class="st13" d="M33.4,81.1L33.4,81.1c0.1,0,0.1,0.1,0.1,0.2l0,0c0,0.1-0.1,0.1-0.1,0.1l0,0
							c-0.1,0-0.1-0.1-0.1-0.2l0,0C33.3,81.2,33.3,81.1,33.4,81.1z"/>
						<path id="XMLID_94_" class="st14" d="M33.4,81.2L33.4,81.2c0.1,0-0.1,0.3-0.1,0.2c0,0,0-0.1,0-0.2v0
							C33.3,81.2,33.3,81.2,33.4,81.2z"/>
					</g>
					<g id="XMLID_90_">
						<path id="XMLID_92_" class="st15" d="M33.8,80.9L33.8,80.9c0.1,0,0.1,0.1,0.1,0.2l0,0c0,0.1-0.1,0.1-0.1,0.1l0,0
							c-0.1,0-0.1-0.1-0.1-0.2l0,0C33.7,80.9,33.7,80.9,33.8,80.9z"/>
						<path id="XMLID_91_" class="st16" d="M33.8,80.9L33.8,80.9c0.1,0-0.1,0.3-0.1,0.2c0,0,0-0.1,0-0.2l0,0
							C33.7,81,33.8,80.9,33.8,80.9z"/>
					</g>
					<g id="XMLID_87_">
						<path id="XMLID_89_" class="st17" d="M33,81.4L33,81.4c0.1,0,0.1,0.1,0.1,0.2l0,0c0,0.1-0.1,0.1-0.1,0.1l0,0
							c-0.1,0-0.1-0.1-0.1-0.2l0,0C32.9,81.4,32.9,81.4,33,81.4z"/>
						<path id="XMLID_88_" class="st18" d="M33,81.4L33,81.4c0.1,0-0.1,0.3-0.1,0.2c0,0,0-0.1,0-0.2l0,0
							C32.9,81.4,32.9,81.4,33,81.4z"/>
					</g>
				</g>
			</g>
		</g>
		<g id="XMLID_28_">
			<g id="XMLID_31_">
				<g id="XMLID_32_">
					<g id="XMLID_38_">
						<g id="XMLID_39_">
							<polygon id="XMLID_81_" class="st19" points="44.5,32 67.6,45.3 67.6,68.4 44.5,55.1 							"/>
							<polygon id="XMLID_16542_" class="st20" points="44.5,32 67.6,45.3 56.3,61.9 44.5,55.1 							"/>
							<polygon id="XMLID_80_" class="st21" points="84,35 27.9,67.4 27.9,91.3 28.6,90.9 28.6,67.9 67.6,45.3 67.6,68.4 84,59 
															"/>
							<polyline id="XMLID_16549_" class="st6" points="84,35 27.9,67.4 27.9,91.3 28.6,90.9 28.6,67.9 67.6,45.3 67.6,68.4 							
								"/>
							<g id="XMLID_65_">
								<g id="XMLID_70_">
									<polygon id="XMLID_78_" class="st22" points="82.4,36.8 69.3,44.4 69.3,51.2 82.4,43.6 									"/>
									<polygon id="XMLID_75_" class="st23" points="82.2,43.4 82.2,37.5 81.9,37.4 69.3,44.7 69.3,50.6 69.5,50.7 									"/>
									<polygon id="XMLID_74_" class="st6" points="82.2,37.5 69.5,44.8 69.5,50.7 82.2,43.4 									"/>
									<polyline id="XMLID_16546_" class="st2" points="82.2,37.5 69.5,44.8 69.5,50.7 									"/>
									<polygon id="XMLID_73_" class="st23" points="70,45.1 69.5,44.8 69.5,45.1 70,45.4 									"/>
									<polygon id="XMLID_72_" class="st23" points="70.2,45.2 70,45.1 70,45.5 70.2,45.7 									"/>
									<polygon id="XMLID_71_" class="st24" points="81.9,37.4 69.3,44.7 69.5,44.8 82.2,37.5 									"/>
								</g>
								<polygon id="XMLID_69_" class="st24" points="82.2,37.5 69.5,44.8 69.7,45 82.4,37.7 								"/>
								<polygon id="XMLID_68_" class="st24" points="82.4,37.7 69.7,45 70,45.1 82.6,37.8 								"/>
								<polygon id="XMLID_67_" class="st24" points="82.6,37.8 70,45.1 70.2,45.2 82.9,37.9 								"/>
								<polygon id="XMLID_66_" class="st25" points="82.9,38.3 70.2,45.7 70.2,45.2 82.9,37.9 								"/>
							</g>
							<g id="XMLID_53_">
								<g id="XMLID_58_">
									<polygon id="XMLID_64_" class="st22" points="82.4,44.2 69.3,51.8 69.3,58.6 82.4,51 									"/>
									<polygon id="XMLID_63_" class="st23" points="82.2,50.8 82.2,44.9 81.9,44.8 69.3,52.1 69.3,58 69.5,58.1 									"/>
									<polygon id="XMLID_62_" class="st6" points="82.2,44.9 69.5,52.2 69.5,58.1 82.2,50.8 									"/>
									<polyline id="XMLID_16547_" class="st2" points="82.2,44.9 69.5,52.2 69.5,58.1 									"/>
									<polygon id="XMLID_61_" class="st23" points="70,52.5 69.5,52.2 69.5,52.5 70,52.8 									"/>
									<polygon id="XMLID_60_" class="st23" points="70.2,52.6 70,52.5 70,52.9 70.2,53 									"/>
									<polygon id="XMLID_59_" class="st24" points="81.9,44.8 69.3,52.1 69.5,52.2 82.2,44.9 									"/>
								</g>
								<polygon id="XMLID_57_" class="st24" points="82.2,44.9 69.5,52.2 69.7,52.4 82.4,45 								"/>
								<polygon id="XMLID_56_" class="st24" points="82.4,45 69.7,52.4 70,52.5 82.6,45.2 								"/>
								<polygon id="XMLID_55_" class="st24" points="82.6,45.2 70,52.5 70.2,52.6 82.9,45.3 								"/>
								<polygon id="XMLID_54_" class="st25" points="82.9,45.7 70.2,53 70.2,52.6 82.9,45.3 								"/>
							</g>
							<g id="XMLID_41_">
								<g id="XMLID_46_">
									<polygon id="XMLID_52_" class="st22" points="82.4,51.6 69.3,59.2 69.3,66 82.4,58.4 									"/>
									<polygon id="XMLID_51_" class="st23" points="82.2,58.2 82.2,52.3 81.9,52.2 69.3,59.5 69.3,65.4 69.5,65.5 									"/>
									<polygon id="XMLID_50_" class="st6" points="82.2,52.3 69.5,59.6 69.5,65.5 82.2,58.2 									"/>
									<polyline id="XMLID_16548_" class="st2" points="82.2,52.3 69.5,59.6 69.5,65.5 									"/>
									<polygon id="XMLID_49_" class="st23" points="70,59.9 69.5,59.6 69.5,59.9 70,60.2 									"/>
									<polygon id="XMLID_48_" class="st23" points="70.2,60 70,59.9 70,60.3 70.2,60.4 									"/>
									<polygon id="XMLID_47_" class="st24" points="81.9,52.2 69.3,59.5 69.5,59.6 82.2,52.3 									"/>
								</g>
								<polygon id="XMLID_45_" class="st24" points="82.2,52.3 69.5,59.6 69.7,59.7 82.4,52.4 								"/>
								<polygon id="XMLID_44_" class="st24" points="82.4,52.4 69.7,59.7 70,59.9 82.6,52.5 								"/>
								<polygon id="XMLID_43_" class="st24" points="82.6,52.5 70,59.9 70.2,60 82.9,52.7 								"/>
								<polygon id="XMLID_42_" class="st25" points="82.9,53.1 70.2,60.4 70.2,60 82.9,52.7 								"/>
							</g>
							<polygon id="XMLID_40_" class="st4" points="27.9,67.4 4.8,54.1 4.8,78 5.5,78.4 27.2,90.9 27.9,91.3 							"/>
						</g>
					</g>
					<g id="XMLID_33_">
						<g id="XMLID_34_">
							<polygon id="XMLID_37_" class="st26" points="27.9,65.9 27.9,67.4 84,35 84,33.5 							"/>
							<polygon id="XMLID_36_" class="st27" points="4.8,52.6 27.9,65.9 27.9,67.4 4.8,54.1 							"/>
							<polygon id="XMLID_35_" class="st28" points="61.1,20.2 5,52.6 28.1,65.9 84.2,33.5 							"/>
							<polygon class="st29" points="69.5,42 84.2,33.5 75.7,28.6 69.5,28.6 							"/>
							<polyline id="XMLID_16550_" class="st29" points="60.9,20.2 4.8,52.6 27.9,65.9 							"/>
							<polygon class="st29" points="57,22.5 56.4,22.8 56.4,49.4 65.3,44.3 65.3,22.7 64.7,22.5 							"/>
							<polygon class="st29" points="38.6,59.7 38.6,39.8 27.3,40.9 27.3,61.5 35.4,61.5 							"/>
						</g>
					</g>
				</g>
			</g>
			<g id="XMLID_29_">
				<polygon id="XMLID_30_" class="st6" points="38.7,83.9 27.9,90.2 27.9,91.3 38.7,85.1 				"/>
			</g>
		</g>
		<g id="XMLID_24_">
			<g id="XMLID_25_">
				<polygon id="XMLID_27_" class="st1" points="40.4,56 40.4,98.5 39.2,99.2 39.2,56.7 				"/>
				<polygon id="XMLID_26_" class="st0" points="4.6,35.4 3.4,36.1 39.2,56.7 40.4,56 				"/>
			</g>
			<polygon class="st3" points="3.4,36.1 2.3,35.4 2.3,77.8 3.4,78.5 39.2,99.2 39.2,56.7 			"/>
			<polyline class="st2" points="39.2,99.2 39.2,56.7 3.4,36.1 2.3,35.4 			"/>
		</g>
	</g>
	<g id="XMLID_1_">
		<path id="XMLID_16551_" class="st30" d="M65.3,22.5c0-1.3-2-2.4-4.4-2.4s-4.4,1.1-4.4,2.4c0,0.2,0,1.1,0,1.3c0,1.3,2,2.4,4.4,2.4
			s4.4-1.1,4.4-2.4C65.3,23.5,65.3,22.7,65.3,22.5z"/>
		<path class="st31" d="M60.8,20c-1.4,0-2.6,0.3-3.4,0.9v4.4c0.8,0.5,2,0.9,3.4,0.9c2.4,0,4.4-1.1,4.4-2.4c0-0.2,0-1.1,0-1.3
			C65.3,21.1,63.3,20,60.8,20z"/>
		<ellipse id="XMLID_16545_" class="st32" cx="60.8" cy="22.5" rx="4.4" ry="2.4"/>
		<path class="st33" d="M60.3,24.9c0.2,0,0.4,0,0.6,0c0.2,0,0.4,0,0.6,0v-4.2h-1.1V24.9z"/>
		<path id="XMLID_22_" class="st33" d="M65.3,22.5c0,1.3-2,2.4-4.4,2.4s-4.4-1.1-4.4-2.4"/>
		<rect id="XMLID_21_" x="60.4" y="12.6" class="st34" width="0.9" height="5.3"/>
		<rect x="60.7" y="12.7" class="st31" width="0.6" height="5.2"/>
		<path id="XMLID_20_" class="st34" d="M60.3,17.8V21l0,0c0,0.2,0.3,0.3,0.6,0.3c0.3,0,0.6-0.1,0.6-0.3v-3.3H60.3z"/>
		<rect id="XMLID_19_" x="60.5" y="10.4" class="st35" width="0.7" height="2.5"/>
		<path id="XMLID_18_" class="st34" d="M61.2,12.3h-0.8c-0.2,0-0.4,0.2-0.4,0.4v0c0,0.2,0.2,0.4,0.4,0.4h0.8c0.2,0,0.4-0.2,0.4-0.4
			v0C61.7,12.5,61.5,12.3,61.2,12.3z"/>
		<path class="st31" d="M61.3,12.3h-1c-0.2,0-0.3,0.1-0.3,0.3v0.1c0,0.2,0.1,0.3,0.3,0.3h1c0.2,0,0.3-0.1,0.3-0.3v-0.1
			C61.7,12.4,61.5,12.3,61.3,12.3z"/>
		<g id="XMLID_6_">
			<path id="XMLID_17_" class="st36" d="M65.9,8.7c0-3.1-2.9-5.3-3.3-6.9c-0.3-1.3-3.2-1.3-3.5,0c-0.4,1.5-3.3,3.8-3.3,6.9
				c0,0.1,0,0.2,0,0.3c0,1,2.2,1.8,5,1.8c2.8,0,5-0.8,5-1.8C65.9,8.9,65.9,8.7,65.9,8.7z"/>
			<path id="XMLID_16_" class="st37" d="M65.9,8.7c0-3.1-2.9-5.3-3.3-6.9c-0.3-1.3-2.8-0.9-3.2,0.4c-0.4,1.5-0.2,4.7-3.6,6.5
				c-0.1,0,0,0.2,0,0.3c0,1,2.2,1.8,5,1.8c2.8,0,5-0.8,5-1.8C65.9,8.9,65.9,8.7,65.9,8.7z"/>
			<path id="XMLID_15_" class="st38" d="M65.9,8.7c0-3.1-2.9-5.3-3.3-6.9c0,0-4.5,9-1.7,9c2.8,0,5-0.8,5-1.8
				C65.9,8.9,65.9,8.7,65.9,8.7z"/>
			<path id="XMLID_14_" class="st39" d="M66,8.7c0-1-2.3-1.9-5.1-1.9c-2.8,0-5.1,0.8-5.1,1.9c0,0,0,0.2,0,0.2c0,1,2.3,1.9,5.1,1.9
				C63.7,10.8,66,10,66,9C66,8.9,66,8.8,66,8.7z"/>
			<ellipse id="XMLID_13_" class="st40" cx="60.9" cy="9" rx="4.7" ry="1.7"/>
			<g id="XMLID_11_">
				<path id="XMLID_12_" class="st41" d="M65.6,9c0-0.9-2.1-1.7-4.7-1.7c-0.2,0-0.3,0-0.5,0l-0.1,0l-1.2,3.3
					c0.5,0.1,1.2,0.1,1.8,0.1C63.5,10.7,65.6,9.9,65.6,9z"/>
			</g>
			<path class="st42" d="M60.9,7.2c-2.1,0-3.8,0.5-4.5,1.1c0.6,0.7,2.4,1.1,4.5,1.1c2.1,0,3.8-0.5,4.5-1.1
				C64.7,7.7,62.9,7.2,60.9,7.2z"/>
			<path class="st42" d="M57.1,7.9c0.9,0.4,2.2,0.7,3.7,0.7c1.5,0,2.9-0.3,3.7-0.7c-0.9-0.4-2.2-0.7-3.7-0.7
				C59.4,7.2,58,7.5,57.1,7.9z"/>
			<g id="XMLID_9_">
				<path id="XMLID_10_" class="st43" d="M59.5,8.5c0.2,0.3,0.6,0.8,1.4,0.8c0.8,0,1.2-0.4,1.4-0.8c0.1-0.2,0.3-0.6,0.2-1.1
					c-0.5-0.1-1.1-0.1-1.6-0.1c-0.6,0-1.1,0-1.6,0.1C59.1,7.9,59.3,8.3,59.5,8.5z"/>
			</g>
			<g id="XMLID_7_">
				<path id="XMLID_8_" class="st44" d="M59.8,8.4C59.9,8.7,60.3,9,60.9,9c0.3,0,0.5-0.1,0.7-0.2c0.1-0.1-0.4-0.5-0.9-0.7
					c-0.5-0.3-1.1-0.3-1.1-0.3C59.6,8.1,59.7,8.3,59.8,8.4z"/>
			</g>
		</g>
		<g id="XMLID_3_">
			<path id="XMLID_5_" class="st39" d="M61.6,23.4c0-0.2-0.3-0.4-0.8-0.4c-0.4,0-0.8,0.2-0.8,0.4c0,0,0,0.2,0,0.2
				c0,0.2,0.3,0.4,0.8,0.4c0.4,0,0.8-0.2,0.8-0.4C61.6,23.6,61.6,23.4,61.6,23.4z"/>
			<ellipse id="XMLID_4_" class="st37" cx="60.8" cy="23.4" rx="0.8" ry="0.4"/>
		</g>
	</g>
	<g id="XMLID_16552_">
		<g id="XMLID_16553_">
			<g id="XMLID_16584_">
				<g id="XMLID_16585_">
					<path id="XMLID_16992_" class="st45" d="M52.8,43.4c0-0.1,0-0.2-0.1-0.2L47,39.9c-0.2-0.1-0.5-0.1-0.7,0l-14.3,8.3
						c-0.1,0-0.1,0.1-0.1,0.2c0,0.1,0,0.6,0,0.7c0,0.1,0,0.2,0.1,0.2l5.7,3.3c0.2,0.1,0.5,0.1,0.7,0l14.3-8.3
						c0.1-0.1,0.1-0.1,0.1-0.2C52.8,44,52.8,43.5,52.8,43.4z"/>
					<path class="st46" d="M52.7,43.2L47,39.9c-0.2-0.1-0.5-0.1-0.7,0l-8.3,4.8v8c0.1,0,0.2,0,0.3-0.1l14.3-8.3
						c0.1-0.1,0.1-0.1,0.1-0.2c0-0.1,0-0.6,0-0.7C52.8,43.3,52.8,43.2,52.7,43.2z"/>
					<path id="XMLID_16991_" class="st47" d="M52.7,43.2L47,39.9c-0.2-0.1-0.5-0.1-0.7,0l-14.3,8.3c-0.2,0.1-0.2,0.3,0,0.4l5.7,3.3
						c0.2,0.1,0.5,0.1,0.7,0l14.3-8.3C52.9,43.5,52.9,43.3,52.7,43.2z"/>
					<g id="XMLID_16586_">
						<g id="XMLID_16895_">
							<g id="XMLID_16964_">
								<g id="XMLID_16978_">
									<g id="XMLID_16985_">
										<g id="XMLID_16986_">
											<g id="XMLID_16987_">
												<g id="XMLID_16988_">
													<path id="XMLID_16990_" class="st46" d="M34.8,47.9C34.8,47.9,34.8,47.8,34.8,47.9l-0.3-0.2c-0.1,0-0.2,0-0.2,0
														L33.7,48c0,0,0,0,0,0.1v0.1c0,0,0,0.1,0,0.1l0.2,0.1c0.1,0,0.2,0,0.2,0l0.5-0.3c0,0,0,0,0-0.1L34.8,47.9z"/>
													<path id="XMLID_16989_" class="st45" d="M34.3,47.6l-0.5,0.3c-0.1,0-0.1,0.1,0,0.2l0.2,0.1c0.1,0,0.2,0,0.2,0l0.5-0.3
														c0.1,0,0.1-0.1,0-0.2l-0.2-0.1C34.4,47.5,34.4,47.5,34.3,47.6z"/>
												</g>
											</g>
										</g>
									</g>
									<g id="XMLID_16979_">
										<g id="XMLID_16980_">
											<g id="XMLID_16981_">
												<g id="XMLID_16982_">
													<path id="XMLID_16984_" class="st46" d="M35.7,47.3C35.7,47.3,35.7,47.3,35.7,47.3l-0.3-0.2c-0.1,0-0.2,0-0.2,0
														l-0.5,0.3c0,0,0,0,0,0.1l0,0.1c0,0,0,0.1,0,0.1l0.2,0.1c0.1,0,0.2,0,0.2,0l0.5-0.3c0,0,0-0.1,0-0.1L35.7,47.3z"/>
													<path id="XMLID_16983_" class="st45" d="M35.2,47.1l-0.5,0.3c-0.1,0-0.1,0.1,0,0.2l0.2,0.1c0.1,0,0.2,0,0.2,0l0.5-0.3
														c0.1,0,0.1-0.1,0-0.2l-0.2-0.1C35.4,47,35.3,47,35.2,47.1z"/>
												</g>
											</g>
										</g>
									</g>
								</g>
								<g id="XMLID_16965_">
									<g id="XMLID_16972_">
										<g id="XMLID_16973_">
											<g id="XMLID_16974_">
												<g id="XMLID_16975_">
													<path id="XMLID_16977_" class="st46" d="M36.6,46.8C36.6,46.8,36.6,46.8,36.6,46.8l-0.3-0.2c-0.1,0-0.2,0-0.2,0
														l-0.5,0.3c0,0,0,0,0,0.1l0,0.1c0,0,0,0.1,0,0.1l0.2,0.1c0.1,0,0.2,0,0.2,0l0.5-0.3c0,0,0,0,0-0.1L36.6,46.8z"/>
													<path id="XMLID_16976_" class="st45" d="M36.1,46.5l-0.5,0.3c-0.1,0-0.1,0.1,0,0.2l0.2,0.1c0.1,0,0.2,0,0.2,0l0.5-0.3
														c0.1,0,0.1-0.1,0-0.2l-0.2-0.1C36.3,46.5,36.2,46.5,36.1,46.5z"/>
												</g>
											</g>
										</g>
									</g>
									<g id="XMLID_16966_">
										<g id="XMLID_16967_">
											<g id="XMLID_16968_">
												<g id="XMLID_16969_">
													<path id="XMLID_16971_" class="st46" d="M37.6,46.3C37.6,46.3,37.5,46.2,37.6,46.3l-0.3-0.2c-0.1,0-0.2,0-0.2,0
														l-0.5,0.3c0,0,0,0,0,0.1v0.1c0,0,0,0.1,0,0.1l0.2,0.1c0.1,0,0.2,0,0.2,0l0.5-0.3c0,0,0,0,0-0.1L37.6,46.3z"/>
													<path id="XMLID_16970_" class="st45" d="M37,46l-0.5,0.3c-0.1,0-0.1,0.1,0,0.2l0.2,0.1c0.1,0,0.2,0,0.2,0l0.5-0.3
														c0.1,0,0.1-0.1,0-0.2L37.3,46C37.2,45.9,37.1,45.9,37,46z"/>
												</g>
											</g>
										</g>
									</g>
								</g>
							</g>
							<g id="XMLID_16937_">
								<g id="XMLID_16951_">
									<g id="XMLID_16958_">
										<g id="XMLID_16959_">
											<g id="XMLID_16960_">
												<g id="XMLID_16961_">
													<path id="XMLID_16963_" class="st46" d="M38.5,45.8C38.5,45.7,38.5,45.7,38.5,45.8l-0.3-0.2c-0.1,0-0.2,0-0.2,0
														l-0.5,0.3c0,0,0,0,0,0.1V46c0,0,0,0.1,0,0.1l0.2,0.1c0.1,0,0.2,0,0.2,0l0.5-0.3c0,0,0-0.1,0-0.1L38.5,45.8z"/>
													<path id="XMLID_16962_" class="st45" d="M38,45.5l-0.5,0.3c-0.1,0-0.1,0.1,0,0.2l0.2,0.1c0.1,0,0.2,0,0.2,0l0.5-0.3
														c0.1,0,0.1-0.1,0-0.2l-0.2-0.1C38.1,45.4,38,45.4,38,45.5z"/>
												</g>
											</g>
										</g>
									</g>
									<g id="XMLID_16952_">
										<g id="XMLID_16953_">
											<g id="XMLID_16954_">
												<g id="XMLID_16955_">
													<path id="XMLID_16957_" class="st46" d="M39.4,45.2C39.4,45.2,39.4,45.2,39.4,45.2L39.1,45c-0.1,0-0.2,0-0.2,0
														l-0.5,0.3c0,0,0,0,0,0.1l0,0.1c0,0,0,0.1,0,0.1l0.2,0.1c0.1,0,0.2,0,0.2,0l0.5-0.3c0,0,0,0,0-0.1L39.4,45.2z"/>
													<path id="XMLID_16956_" class="st45" d="M38.9,44.9l-0.5,0.3c-0.1,0-0.1,0.1,0,0.2l0.2,0.1c0.1,0,0.2,0,0.2,0l0.5-0.3
														c0.1,0,0.1-0.1,0-0.2l-0.2-0.1C39,44.9,39,44.9,38.9,44.9z"/>
												</g>
											</g>
										</g>
									</g>
								</g>
								<g id="XMLID_16938_">
									<g id="XMLID_16945_">
										<g id="XMLID_16946_">
											<g id="XMLID_16947_">
												<g id="XMLID_16948_">
													<path id="XMLID_16950_" class="st46" d="M40.3,44.7C40.3,44.7,40.3,44.6,40.3,44.7L40,44.5c-0.1,0-0.2,0-0.2,0
														l-0.5,0.3c0,0,0,0,0,0.1l0,0.1c0,0,0,0.1,0,0.1l0.2,0.1c0.1,0,0.2,0,0.2,0l0.5-0.3c0,0,0-0.1,0-0.1L40.3,44.7z"/>
													<path id="XMLID_16949_" class="st45" d="M39.8,44.4l-0.5,0.3c-0.1,0-0.1,0.1,0,0.2l0.2,0.1c0.1,0,0.2,0,0.2,0l0.5-0.3
														c0.1,0,0.1-0.1,0-0.2L40,44.4C40,44.4,39.9,44.4,39.8,44.4z"/>
												</g>
											</g>
										</g>
									</g>
									<g id="XMLID_16939_">
										<g id="XMLID_16940_">
											<g id="XMLID_16941_">
												<g id="XMLID_16942_">
													<path id="XMLID_16944_" class="st46" d="M41.2,44.2C41.2,44.1,41.2,44.1,41.2,44.2L41,44c-0.1,0-0.2,0-0.2,0l-0.5,0.3
														c0,0,0,0,0,0.1v0.1c0,0,0,0.1,0,0.1l0.2,0.1c0.1,0,0.2,0,0.2,0l0.5-0.3c0,0,0-0.1,0-0.1L41.2,44.2z"/>
													<path id="XMLID_16943_" class="st45" d="M40.7,43.9l-0.5,0.3c-0.1,0-0.1,0.1,0,0.2l0.2,0.1c0.1,0,0.2,0,0.2,0l0.5-0.3
														c0.1,0,0.1-0.1,0-0.2L41,43.9C40.9,43.8,40.8,43.8,40.7,43.9z"/>
												</g>
											</g>
										</g>
									</g>
								</g>
							</g>
							<g id="XMLID_16910_">
								<g id="XMLID_16924_">
									<g id="XMLID_16931_">
										<g id="XMLID_16932_">
											<g id="XMLID_16933_">
												<g id="XMLID_16934_">
													<path id="XMLID_16936_" class="st46" d="M42.2,43.6C42.1,43.6,42.1,43.6,42.2,43.6l-0.3-0.2c-0.1,0-0.2,0-0.2,0
														l-0.5,0.3c0,0,0,0,0,0.1v0.1c0,0,0,0.1,0,0.1l0.2,0.1c0.1,0,0.2,0,0.2,0l0.5-0.3c0,0,0-0.1,0-0.1L42.2,43.6z"/>
													<path id="XMLID_16935_" class="st45" d="M41.6,43.3l-0.5,0.3c-0.1,0-0.1,0.1,0,0.2l0.2,0.1c0.1,0,0.2,0,0.2,0l0.5-0.3
														c0.1,0,0.1-0.1,0-0.2l-0.2-0.1C41.8,43.3,41.7,43.3,41.6,43.3z"/>
												</g>
											</g>
										</g>
									</g>
									<g id="XMLID_16925_">
										<g id="XMLID_16926_">
											<g id="XMLID_16927_">
												<g id="XMLID_16928_">
													<path id="XMLID_16930_" class="st46" d="M43.1,43.1C43.1,43.1,43.1,43,43.1,43.1l-0.3-0.2c-0.1,0-0.2,0-0.2,0L42,43.2
														c0,0,0,0,0,0.1l0,0.1c0,0,0,0.1,0,0.1l0.2,0.1c0.1,0,0.2,0,0.2,0l0.5-0.3c0,0,0-0.1,0-0.1L43.1,43.1z"/>
													<path id="XMLID_16929_" class="st45" d="M42.6,42.8L42,43.1c-0.1,0-0.1,0.1,0,0.2l0.2,0.1c0.1,0,0.2,0,0.2,0l0.5-0.3
														c0.1,0,0.1-0.1,0-0.2l-0.2-0.1C42.7,42.8,42.6,42.8,42.6,42.8z"/>
												</g>
											</g>
										</g>
									</g>
								</g>
								<g id="XMLID_16911_">
									<g id="XMLID_16918_">
										<g id="XMLID_16919_">
											<g id="XMLID_16920_">
												<g id="XMLID_16921_">
													<path id="XMLID_16923_" class="st46" d="M44,42.6C44,42.5,44,42.5,44,42.6l-0.3-0.2c-0.1,0-0.2,0-0.2,0l-0.5,0.3
														c0,0,0,0,0,0.1l0,0.1c0,0,0,0.1,0,0.1l0.2,0.1c0.1,0,0.2,0,0.2,0l0.5-0.3c0,0,0,0,0-0.1L44,42.6z"/>
													<path id="XMLID_16922_" class="st45" d="M43.5,42.3l-0.5,0.3c-0.1,0-0.1,0.1,0,0.2l0.2,0.1c0.1,0,0.2,0,0.2,0l0.5-0.3
														c0.1,0,0.1-0.1,0-0.2l-0.2-0.1C43.6,42.2,43.5,42.2,43.5,42.3z"/>
												</g>
											</g>
										</g>
									</g>
									<g id="XMLID_16912_">
										<g id="XMLID_16913_">
											<g id="XMLID_16914_">
												<g id="XMLID_16915_">
													<path id="XMLID_16917_" class="st46" d="M44.9,42C44.9,42,44.9,42,44.9,42l-0.3-0.2c-0.1,0-0.2,0-0.2,0l-0.5,0.3
														c0,0,0,0,0,0.1v0.1c0,0,0,0.1,0,0.1l0.2,0.1c0.1,0,0.2,0,0.2,0l0.5-0.3c0,0,0-0.1,0-0.1L44.9,42z"/>
													<path id="XMLID_16916_" class="st45" d="M44.4,41.7l-0.5,0.3c-0.1,0-0.1,0.1,0,0.2l0.2,0.1c0.1,0,0.2,0,0.2,0l0.5-0.3
														c0.1,0,0.1-0.1,0-0.2l-0.2-0.1C44.6,41.7,44.5,41.7,44.4,41.7z"/>
												</g>
											</g>
										</g>
									</g>
								</g>
							</g>
							<g id="XMLID_16896_">
								<g id="XMLID_16897_">
									<g id="XMLID_16904_">
										<g id="XMLID_16905_">
											<g id="XMLID_16906_">
												<g id="XMLID_16907_">
													<path id="XMLID_16909_" class="st46" d="M45.8,41.5C45.8,41.5,45.8,41.4,45.8,41.5l-0.3-0.2c-0.1,0-0.2,0-0.2,0
														l-0.5,0.3c0,0,0,0,0,0.1v0.1c0,0,0,0.1,0,0.1L45,42c0.1,0,0.2,0,0.2,0l0.5-0.3c0,0,0-0.1,0-0.1L45.8,41.5z"/>
													<path id="XMLID_16908_" class="st45" d="M45.3,41.2l-0.5,0.3c-0.1,0-0.1,0.1,0,0.2l0.2,0.1c0.1,0,0.2,0,0.2,0l0.5-0.3
														c0.1,0,0.1-0.1,0-0.2l-0.2-0.1C45.5,41.2,45.4,41.2,45.3,41.2z"/>
												</g>
											</g>
										</g>
									</g>
									<g id="XMLID_16898_">
										<g id="XMLID_16899_">
											<g id="XMLID_16900_">
												<g id="XMLID_16901_">
													<path id="XMLID_16903_" class="st46" d="M46.7,41C46.7,40.9,46.7,40.9,46.7,41l-0.3-0.2c-0.1,0-0.2,0-0.2,0l-0.5,0.3
														c0,0,0,0,0,0.1l0,0.1c0,0,0,0.1,0,0.1l0.2,0.1c0.1,0,0.2,0,0.2,0l0.5-0.3c0,0,0-0.1,0-0.1L46.7,41z"/>
													<path id="XMLID_16902_" class="st45" d="M46.2,40.7L45.7,41c-0.1,0-0.1,0.1,0,0.2l0.2,0.1c0.1,0,0.2,0,0.2,0l0.5-0.3
														c0.1,0,0.1-0.1,0-0.2l-0.2-0.1C46.4,40.6,46.3,40.6,46.2,40.7z"/>
												</g>
											</g>
										</g>
									</g>
								</g>
							</g>
						</g>
						<g id="XMLID_16830_">
							<g id="XMLID_16886_">
								<g id="XMLID_16891_">
									<g id="XMLID_16892_">
										<path id="XMLID_16894_" class="st46" d="M46.4,42.2C46.4,42.2,46.4,42.1,46.4,42.2l-0.6-0.4c-0.1,0-0.2,0-0.2,0l-0.5,0.3
											c0,0,0,0,0,0.1v0.1c0,0,0,0.1,0,0.1l0.5,0.3c0.1,0,0.2,0,0.2,0l0.5-0.3c0,0,0,0,0-0.1L46.4,42.2z"/>
										<path id="XMLID_16893_" class="st45" d="M45.6,41.7L45.1,42c-0.1,0-0.1,0.1,0,0.2l0.5,0.3c0.1,0,0.2,0,0.2,0l0.5-0.3
											c0.1,0,0.1-0.1,0-0.2l-0.5-0.3C45.8,41.7,45.7,41.7,45.6,41.7z"/>
									</g>
								</g>
								<g id="XMLID_16887_">
									<g id="XMLID_16888_">
										<path id="XMLID_16890_" class="st46" d="M45.5,42.7C45.5,42.7,45.5,42.6,45.5,42.7L45,42.3c-0.1,0-0.2,0-0.2,0l-0.5,0.3
											c0,0,0,0,0,0.1v0.1c0,0,0,0.1,0,0.1l0.5,0.3c0.1,0,0.2,0,0.2,0l0.5-0.3c0,0,0,0,0-0.1L45.5,42.7z"/>
										<path id="XMLID_16889_" class="st45" d="M44.7,42.2l-0.5,0.3c-0.1,0-0.1,0.1,0,0.2l0.5,0.3c0.1,0,0.2,0,0.2,0l0.5-0.3
											c0.1,0,0.1-0.1,0-0.2L45,42.2C44.9,42.2,44.8,42.2,44.7,42.2z"/>
									</g>
								</g>
							</g>
							<g id="XMLID_16881_">
								<g id="XMLID_16882_">
									<g id="XMLID_16883_">
										<path id="XMLID_16885_" class="st46" d="M47.6,41.5C47.6,41.5,47.6,41.4,47.6,41.5l-0.6-0.4c-0.1,0-0.2,0-0.2,0L46,41.6
											c0,0,0,0,0,0.1l0,0.1c0,0,0,0.1,0,0.1l0.5,0.3c0.1,0,0.2,0,0.2,0l0.8-0.5c0,0,0,0,0-0.1L47.6,41.5z"/>
										<path id="XMLID_16884_" class="st45" d="M46.8,41L46,41.5c-0.1,0-0.1,0.1,0,0.2l0.5,0.3c0.1,0,0.2,0,0.2,0l0.8-0.5
											c0.1,0,0.1-0.1,0-0.2L47.1,41C47,41,46.9,41,46.8,41z"/>
									</g>
								</g>
							</g>
							<g id="XMLID_16872_">
								<g id="XMLID_16877_">
									<g id="XMLID_16878_">
										<path id="XMLID_16880_" class="st46" d="M44.6,43.2C44.6,43.2,44.6,43.2,44.6,43.2l-0.6-0.4c-0.1,0-0.2,0-0.2,0l-0.5,0.3
											c0,0,0,0,0,0.1l0,0.1c0,0,0,0.1,0,0.1l0.5,0.3c0.1,0,0.2,0,0.2,0l0.5-0.3c0,0,0,0,0-0.1L44.6,43.2z"/>
										<path id="XMLID_16879_" class="st45" d="M43.8,42.8l-0.5,0.3c-0.1,0-0.1,0.1,0,0.2l0.5,0.3c0.1,0,0.2,0,0.2,0l0.5-0.3
											c0.1,0,0.1-0.1,0-0.2l-0.5-0.3C44,42.7,43.9,42.7,43.8,42.8z"/>
									</g>
								</g>
								<g id="XMLID_16873_">
									<g id="XMLID_16874_">
										<path id="XMLID_16876_" class="st46" d="M43.7,43.7C43.7,43.7,43.7,43.7,43.7,43.7l-0.6-0.4c-0.1,0-0.2,0-0.2,0l-0.5,0.3
											c0,0,0,0,0,0.1v0.1c0,0,0,0.1,0,0.1l0.5,0.3c0.1,0,0.2,0,0.2,0l0.5-0.3c0,0,0,0,0-0.1L43.7,43.7z"/>
										<path id="XMLID_16875_" class="st45" d="M42.9,43.3l-0.5,0.3c-0.1,0-0.1,0.1,0,0.2l0.5,0.3c0.1,0,0.2,0,0.2,0l0.5-0.3
											c0.1,0,0.1-0.1,0-0.2l-0.5-0.3C43.1,43.2,43,43.2,42.9,43.3z"/>
									</g>
								</g>
							</g>
							<g id="XMLID_16863_">
								<g id="XMLID_16868_">
									<g id="XMLID_16869_">
										<path id="XMLID_16871_" class="st46" d="M42.9,44.3C42.8,44.2,42.8,44.2,42.9,44.3l-0.6-0.4c-0.1,0-0.2,0-0.2,0l-0.5,0.3
											c0,0,0,0,0,0.1l0,0.1c0,0,0,0.1,0,0.1l0.5,0.3c0.1,0,0.2,0,0.2,0l0.5-0.3c0,0,0,0,0-0.1L42.9,44.3z"/>
										<path id="XMLID_16870_" class="st45" d="M42,43.8l-0.5,0.3c-0.1,0-0.1,0.1,0,0.2l0.5,0.3c0.1,0,0.2,0,0.2,0l0.5-0.3
											c0.1,0,0.1-0.1,0-0.2l-0.5-0.3C42.2,43.8,42.1,43.8,42,43.8z"/>
									</g>
								</g>
								<g id="XMLID_16864_">
									<g id="XMLID_16865_">
										<path id="XMLID_16867_" class="st46" d="M42,44.8C41.9,44.7,41.9,44.7,42,44.8l-0.6-0.4c-0.1,0-0.2,0-0.2,0l-0.5,0.3
											c0,0,0,0,0,0.1v0.1c0,0,0,0.1,0,0.1l0.5,0.3c0.1,0,0.2,0,0.2,0l0.5-0.3c0,0,0,0,0-0.1L42,44.8z"/>
										<path id="XMLID_16866_" class="st45" d="M41.1,44.3l-0.5,0.3c-0.1,0-0.1,0.1,0,0.2l0.5,0.3c0.1,0,0.2,0,0.2,0l0.5-0.3
											c0.1,0,0.1-0.1,0-0.2l-0.5-0.3C41.3,44.3,41.2,44.3,41.1,44.3z"/>
									</g>
								</g>
							</g>
							<g id="XMLID_16854_">
								<g id="XMLID_16859_">
									<g id="XMLID_16860_">
										<path id="XMLID_16862_" class="st46" d="M41.1,45.3C41.1,45.3,41,45.2,41.1,45.3l-0.6-0.4c-0.1,0-0.2,0-0.2,0l-0.5,0.3
											c0,0,0,0,0,0.1l0,0.1c0,0,0,0.1,0,0.1l0.5,0.3c0.1,0,0.2,0,0.2,0l0.5-0.3c0,0,0,0,0-0.1L41.1,45.3z"/>
										<path id="XMLID_16861_" class="st45" d="M40.3,44.8l-0.5,0.3c-0.1,0-0.1,0.1,0,0.2l0.5,0.3c0.1,0,0.2,0,0.2,0l0.5-0.3
											c0.1,0,0.1-0.1,0-0.2l-0.5-0.3C40.4,44.8,40.3,44.8,40.3,44.8z"/>
									</g>
								</g>
								<g id="XMLID_16855_">
									<g id="XMLID_16856_">
										<path id="XMLID_16858_" class="st46" d="M40.2,45.8C40.2,45.8,40.1,45.8,40.2,45.8l-0.6-0.4c-0.1,0-0.2,0-0.2,0l-0.5,0.3
											c0,0,0,0,0,0.1v0.1c0,0,0,0.1,0,0.1l0.5,0.3c0.1,0,0.2,0,0.2,0l0.5-0.3c0,0,0,0,0-0.1L40.2,45.8z"/>
										<path id="XMLID_16857_" class="st45" d="M39.4,45.3l-0.5,0.3c-0.1,0-0.1,0.1,0,0.2l0.5,0.3c0.1,0,0.2,0,0.2,0l0.5-0.3
											c0.1,0,0.1-0.1,0-0.2l-0.5-0.3C39.5,45.3,39.4,45.3,39.4,45.3z"/>
									</g>
								</g>
							</g>
							<g id="XMLID_16845_">
								<g id="XMLID_16850_">
									<g id="XMLID_16851_">
										<path id="XMLID_16853_" class="st46" d="M39.3,46.3C39.3,46.3,39.2,46.3,39.3,46.3L38.7,46c-0.1,0-0.2,0-0.2,0l-0.5,0.3
											c0,0,0,0,0,0.1l0,0.1c0,0,0,0.1,0,0.1l0.5,0.3c0.1,0,0.2,0,0.2,0l0.5-0.3c0,0,0,0,0-0.1L39.3,46.3z"/>
										<path id="XMLID_16852_" class="st45" d="M38.5,45.9l-0.5,0.3c-0.1,0-0.1,0.1,0,0.2l0.5,0.3c0.1,0,0.2,0,0.2,0l0.5-0.3
											c0.1,0,0.1-0.1,0-0.2l-0.5-0.3C38.6,45.8,38.5,45.8,38.5,45.9z"/>
									</g>
								</g>
								<g id="XMLID_16846_">
									<g id="XMLID_16847_">
										<path id="XMLID_16849_" class="st46" d="M38.4,46.8C38.4,46.8,38.3,46.8,38.4,46.8l-0.6-0.4c-0.1,0-0.2,0-0.2,0L37,46.8
											c0,0,0,0,0,0.1V47c0,0,0,0.1,0,0.1l0.5,0.3c0.1,0,0.2,0,0.2,0l0.5-0.3c0,0,0,0,0-0.1L38.4,46.8z"/>
										<path id="XMLID_16848_" class="st45" d="M37.6,46.4L37,46.7c-0.1,0-0.1,0.1,0,0.2l0.5,0.3c0.1,0,0.2,0,0.2,0l0.5-0.3
											c0.1,0,0.1-0.1,0-0.2l-0.5-0.3C37.7,46.3,37.6,46.3,37.6,46.4z"/>
									</g>
								</g>
							</g>
							<g id="XMLID_16836_">
								<g id="XMLID_16841_">
									<g id="XMLID_16842_">
										<path id="XMLID_16844_" class="st46" d="M37.5,47.4C37.5,47.3,37.4,47.3,37.5,47.4L36.9,47c-0.1,0-0.2,0-0.2,0l-0.5,0.3
											c0,0,0,0,0,0.1v0.1c0,0,0,0.1,0,0.1l0.5,0.3c0.1,0,0.2,0,0.2,0l0.5-0.3c0,0,0,0,0-0.1L37.5,47.4z"/>
										<path id="XMLID_16843_" class="st45" d="M36.7,46.9l-0.5,0.3c-0.1,0-0.1,0.1,0,0.2l0.5,0.3c0.1,0,0.2,0,0.2,0l0.5-0.3
											c0.1,0,0.1-0.1,0-0.2l-0.5-0.3C36.8,46.9,36.7,46.9,36.7,46.9z"/>
									</g>
								</g>
								<g id="XMLID_16837_">
									<g id="XMLID_16838_">
										<path id="XMLID_16840_" class="st46" d="M36.6,47.9C36.6,47.9,36.5,47.8,36.6,47.9L36,47.5c-0.1,0-0.2,0-0.2,0l-0.5,0.3
											c0,0,0,0,0,0.1V48c0,0,0,0.1,0,0.1l0.5,0.3c0.1,0,0.2,0,0.2,0l0.5-0.3c0,0,0,0,0-0.1L36.6,47.9z"/>
										<path id="XMLID_16839_" class="st45" d="M35.8,47.4l-0.5,0.3c-0.1,0-0.1,0.1,0,0.2l0.5,0.3c0.1,0,0.2,0,0.2,0l0.5-0.3
											c0.1,0,0.1-0.1,0-0.2L36,47.4C35.9,47.4,35.8,47.4,35.8,47.4z"/>
									</g>
								</g>
							</g>
							<g id="XMLID_16831_">
								<g id="XMLID_16832_">
									<g id="XMLID_16833_">
										<path id="XMLID_16835_" class="st46" d="M35.7,48.4C35.7,48.4,35.6,48.3,35.7,48.4L35.1,48c-0.1,0-0.2,0-0.2,0l-0.5,0.3
											c0,0,0,0,0,0.1l0,0.1c0,0,0,0.1,0,0.1l0.5,0.3c0.1,0,0.2,0,0.2,0l0.5-0.3c0,0,0,0,0-0.1L35.7,48.4z"/>
										<path id="XMLID_16834_" class="st45" d="M34.9,47.9l-0.5,0.3c-0.1,0-0.1,0.1,0,0.2l0.5,0.3c0.1,0,0.2,0,0.2,0l0.5-0.3
											c0.1,0,0.1-0.1,0-0.2l-0.5-0.3C35,47.9,34.9,47.9,34.9,47.9z"/>
									</g>
								</g>
							</g>
						</g>
						<g id="XMLID_16766_">
							<g id="XMLID_16825_">
								<g id="XMLID_16826_">
									<g id="XMLID_16827_">
										<path id="XMLID_16829_" class="st46" d="M36.9,48.7C36.9,48.7,36.8,48.7,36.9,48.7l-0.6-0.4c-0.1,0-0.2,0-0.2,0l-0.8,0.5
											c0,0,0,0,0,0.1l0,0.1c0,0,0,0.1,0,0.1l0.5,0.3c0.1,0,0.2,0,0.2,0l0.8-0.5c0,0,0,0,0-0.1L36.9,48.7z"/>
										<path id="XMLID_16828_" class="st45" d="M36.1,48.3l-0.8,0.5c-0.1,0-0.1,0.1,0,0.2l0.5,0.3c0.1,0,0.2,0,0.2,0l0.8-0.5
											c0.1,0,0.1-0.1,0-0.2l-0.5-0.3C36.2,48.2,36.1,48.2,36.1,48.3z"/>
									</g>
								</g>
							</g>
							<g id="XMLID_16770_">
								<g id="XMLID_16821_">
									<g id="XMLID_16822_">
										<path id="XMLID_16824_" class="st46" d="M47.6,42.5C47.6,42.5,47.6,42.4,47.6,42.5l-0.6-0.4c-0.1,0-0.2,0-0.2,0l-0.5,0.3
											c0,0,0,0,0,0.1l0,0.1c0,0,0,0.1,0,0.1l0.5,0.3c0.1,0,0.2,0,0.2,0l0.5-0.3c0,0,0,0,0-0.1L47.6,42.5z"/>
										<path id="XMLID_16823_" class="st45" d="M46.8,42l-0.5,0.3c-0.1,0-0.1,0.1,0,0.2l0.5,0.3c0.1,0,0.2,0,0.2,0l0.5-0.3
											c0.1,0,0.1-0.1,0-0.2L47.1,42C47,42,46.9,42,46.8,42z"/>
									</g>
								</g>
								<g id="XMLID_16812_">
									<g id="XMLID_16817_">
										<g id="XMLID_16818_">
											<path id="XMLID_16820_" class="st46" d="M46.7,43C46.7,43,46.7,43,46.7,43l-0.6-0.4c-0.1,0-0.2,0-0.2,0L45.4,43
												c0,0,0,0,0,0.1v0.1c0,0,0,0.1,0,0.1l0.5,0.3c0.1,0,0.2,0,0.2,0l0.5-0.3c0,0,0,0,0-0.1V43z"/>
											<path id="XMLID_16819_" class="st45" d="M45.9,42.6l-0.5,0.3c-0.1,0-0.1,0.1,0,0.2l0.5,0.3c0.1,0,0.2,0,0.2,0l0.5-0.3
												c0.1,0,0.1-0.1,0-0.2l-0.5-0.3C46.1,42.5,46,42.5,45.9,42.6z"/>
										</g>
									</g>
									<g id="XMLID_16813_">
										<g id="XMLID_16814_">
											<path id="XMLID_16816_" class="st46" d="M45.8,43.5C45.8,43.5,45.8,43.5,45.8,43.5l-0.6-0.4c-0.1,0-0.2,0-0.2,0l-0.5,0.3
												c0,0,0,0,0,0.1l0,0.1c0,0,0,0.1,0,0.1L45,44c0.1,0,0.2,0,0.2,0l0.5-0.3c0,0,0,0,0-0.1L45.8,43.5z"/>
											<path id="XMLID_16815_" class="st45" d="M45,43.1l-0.5,0.3c-0.1,0-0.1,0.1,0,0.2l0.5,0.3c0.1,0,0.2,0,0.2,0l0.5-0.3
												c0.1,0,0.1-0.1,0-0.2l-0.5-0.3C45.2,43,45.1,43,45,43.1z"/>
										</g>
									</g>
								</g>
								<g id="XMLID_16803_">
									<g id="XMLID_16808_">
										<g id="XMLID_16809_">
											<path id="XMLID_16811_" class="st46" d="M44.9,44.1C44.9,44,44.9,44,44.9,44.1l-0.6-0.4c-0.1,0-0.2,0-0.2,0L43.6,44
												c0,0,0,0,0,0.1v0.1c0,0,0,0.1,0,0.1l0.5,0.3c0.1,0,0.2,0,0.2,0l0.5-0.3c0,0,0,0,0-0.1L44.9,44.1z"/>
											<path id="XMLID_16810_" class="st45" d="M44.1,43.6l-0.5,0.3c-0.1,0-0.1,0.1,0,0.2l0.5,0.3c0.1,0,0.2,0,0.2,0l0.5-0.3
												c0.1,0,0.1-0.1,0-0.2l-0.5-0.3C44.3,43.6,44.2,43.6,44.1,43.6z"/>
										</g>
									</g>
									<g id="XMLID_16804_">
										<g id="XMLID_16805_">
											<path id="XMLID_16807_" class="st46" d="M44,44.6C44,44.5,44,44.5,44,44.6l-0.6-0.4c-0.1,0-0.2,0-0.2,0l-0.5,0.3
												c0,0,0,0,0,0.1l0,0.1c0,0,0,0.1,0,0.1l0.5,0.3c0.1,0,0.2,0,0.2,0l0.5-0.3c0,0,0,0,0-0.1L44,44.6z"/>
											<path id="XMLID_16806_" class="st45" d="M43.2,44.1l-0.5,0.3c-0.1,0-0.1,0.1,0,0.2l0.5,0.3c0.1,0,0.2,0,0.2,0l0.5-0.3
												c0.1,0,0.1-0.1,0-0.2l-0.5-0.3C43.4,44.1,43.3,44.1,43.2,44.1z"/>
										</g>
									</g>
								</g>
								<g id="XMLID_16794_">
									<g id="XMLID_16799_">
										<g id="XMLID_16800_">
											<path id="XMLID_16802_" class="st46" d="M43.1,45.1C43.1,45.1,43.1,45,43.1,45.1l-0.6-0.4c-0.1,0-0.2,0-0.2,0L41.8,45
												c0,0,0,0,0,0.1v0.1c0,0,0,0.1,0,0.1l0.5,0.3c0.1,0,0.2,0,0.2,0l0.5-0.3c0,0,0,0,0-0.1L43.1,45.1z"/>
											<path id="XMLID_16801_" class="st45" d="M42.3,44.6l-0.5,0.3c-0.1,0-0.1,0.1,0,0.2l0.5,0.3c0.1,0,0.2,0,0.2,0l0.5-0.3
												c0.1,0,0.1-0.1,0-0.2l-0.5-0.3C42.5,44.6,42.4,44.6,42.3,44.6z"/>
										</g>
									</g>
									<g id="XMLID_16795_">
										<g id="XMLID_16796_">
											<path id="XMLID_16798_" class="st46" d="M42.2,45.6C42.2,45.6,42.2,45.6,42.2,45.6l-0.6-0.4c-0.1,0-0.2,0-0.2,0l-0.5,0.3
												c0,0,0,0,0,0.1v0.1c0,0,0,0.1,0,0.1l0.5,0.3c0.1,0,0.2,0,0.2,0l0.5-0.3c0,0,0,0,0-0.1L42.2,45.6z"/>
											<path id="XMLID_16797_" class="st45" d="M41.4,45.2l-0.5,0.3c-0.1,0-0.1,0.1,0,0.2l0.5,0.3c0.1,0,0.2,0,0.2,0l0.5-0.3
												c0.1,0,0.1-0.1,0-0.2l-0.5-0.3C41.6,45.1,41.5,45.1,41.4,45.2z"/>
										</g>
									</g>
								</g>
								<g id="XMLID_16785_">
									<g id="XMLID_16790_">
										<g id="XMLID_16791_">
											<path id="XMLID_16793_" class="st46" d="M41.4,46.1C41.3,46.1,41.3,46.1,41.4,46.1l-0.6-0.4c-0.1,0-0.2,0-0.2,0L40,46.1
												c0,0,0,0,0,0.1l0,0.1c0,0,0,0.1,0,0.1l0.5,0.3c0.1,0,0.2,0,0.2,0l0.5-0.3c0,0,0,0,0-0.1L41.4,46.1z"/>
											<path id="XMLID_16792_" class="st45" d="M40.5,45.7L40,46c-0.1,0-0.1,0.1,0,0.2l0.5,0.3c0.1,0,0.2,0,0.2,0l0.5-0.3
												c0.1,0,0.1-0.1,0-0.2l-0.5-0.3C40.7,45.6,40.6,45.6,40.5,45.7z"/>
										</g>
									</g>
									<g id="XMLID_16786_">
										<g id="XMLID_16787_">
											<path id="XMLID_16789_" class="st46" d="M40.5,46.7C40.5,46.6,40.4,46.6,40.5,46.7l-0.6-0.4c-0.1,0-0.2,0-0.2,0l-0.5,0.3
												c0,0,0,0,0,0.1l0,0.1c0,0,0,0.1,0,0.1l0.5,0.3c0.1,0,0.2,0,0.2,0l0.5-0.3c0,0,0,0,0-0.1L40.5,46.7z"/>
											<path id="XMLID_16788_" class="st45" d="M39.6,46.2l-0.5,0.3c-0.1,0-0.1,0.1,0,0.2l0.5,0.3c0.1,0,0.2,0,0.2,0l0.5-0.3
												c0.1,0,0.1-0.1,0-0.2l-0.5-0.3C39.8,46.1,39.7,46.1,39.6,46.2z"/>
										</g>
									</g>
								</g>
								<g id="XMLID_16776_">
									<g id="XMLID_16781_">
										<g id="XMLID_16782_">
											<path id="XMLID_16784_" class="st46" d="M39.6,47.2C39.6,47.1,39.5,47.1,39.6,47.2L39,46.8c-0.1,0-0.2,0-0.2,0l-0.5,0.3
												c0,0,0,0,0,0.1v0.1c0,0,0,0.1,0,0.1l0.5,0.3c0.1,0,0.2,0,0.2,0l0.5-0.3c0,0,0,0,0-0.1L39.6,47.2z"/>
											<path id="XMLID_16783_" class="st45" d="M38.8,46.7L38.2,47c-0.1,0-0.1,0.1,0,0.2l0.5,0.3c0.1,0,0.2,0,0.2,0l0.5-0.3
												c0.1,0,0.1-0.1,0-0.2L39,46.7C38.9,46.7,38.8,46.7,38.8,46.7z"/>
										</g>
									</g>
									<g id="XMLID_16777_">
										<g id="XMLID_16778_">
											<path id="XMLID_16780_" class="st46" d="M38.7,47.7C38.7,47.7,38.6,47.6,38.7,47.7l-0.6-0.4c-0.1,0-0.2,0-0.2,0l-0.5,0.3
												c0,0,0,0,0,0.1v0.1c0,0,0,0.1,0,0.1l0.5,0.3c0.1,0,0.2,0,0.2,0l0.5-0.3c0,0,0,0,0-0.1L38.7,47.7z"/>
											<path id="XMLID_16779_" class="st45" d="M37.9,47.2l-0.5,0.3c-0.1,0-0.1,0.1,0,0.2l0.5,0.3c0.1,0,0.2,0,0.2,0l0.5-0.3
												c0.1,0,0.1-0.1,0-0.2l-0.5-0.3C38,47.2,37.9,47.2,37.9,47.2z"/>
										</g>
									</g>
								</g>
								<g id="XMLID_16771_">
									<g id="XMLID_16772_">
										<g id="XMLID_16773_">
											<path id="XMLID_16775_" class="st46" d="M37.8,48.2C37.8,48.2,37.7,48.2,37.8,48.2l-0.6-0.4c-0.1,0-0.2,0-0.2,0l-0.5,0.3
												c0,0,0,0,0,0.1l0,0.1c0,0,0,0.1,0,0.1l0.5,0.3c0.1,0,0.2,0,0.2,0l0.5-0.3c0,0,0,0,0-0.1L37.8,48.2z"/>
											<path id="XMLID_16774_" class="st45" d="M37,47.7l-0.5,0.3c-0.1,0-0.1,0.1,0,0.2l0.5,0.3c0.1,0,0.2,0,0.2,0l0.5-0.3
												c0.1,0,0.1-0.1,0-0.2l-0.5-0.3C37.1,47.7,37,47.7,37,47.7z"/>
										</g>
									</g>
								</g>
							</g>
							<g id="XMLID_16767_">
								<path id="XMLID_16769_" class="st46" d="M49.4,42.5C49.4,42.5,49.4,42.4,49.4,42.5L48,41.6c-0.1,0-0.2,0-0.2,0l-0.5,0.3
									c0,0,0,0,0,0.1l0,0.1c0,0,0,0.1,0,0.1l0.5,0.3c0.1,0,0.1,0,0.2,0l0.1,0l0.8,0.4c0.1,0,0.2,0,0.2,0l0.4-0.2c0,0,0,0,0-0.1
									L49.4,42.5z"/>
								<path id="XMLID_16768_" class="st45" d="M49.4,42.3l-1-0.6c0,0,0,0,0,0L48,41.5c-0.1,0-0.2,0-0.2,0l-0.5,0.3
									c-0.1,0-0.1,0.1,0,0.2l0.5,0.3c0.1,0,0.1,0,0.2,0l0.1,0l0.8,0.4c0.1,0,0.2,0,0.2,0l0.4-0.2C49.4,42.5,49.4,42.4,49.4,42.3z"
									/>
							</g>
						</g>
						<g id="XMLID_16705_">
							<g id="XMLID_16760_">
								<g id="XMLID_16761_">
									<g id="XMLID_16762_">
										<g id="XMLID_16763_">
											<path id="XMLID_16765_" class="st46" d="M37.9,49.2C37.9,49.1,37.9,49.1,37.9,49.2l-0.6-0.4c-0.1,0-0.2,0-0.2,0l-1,0.6
												c0,0,0,0,0,0.1l0,0.1c0,0,0,0.1,0,0.1l0.5,0.3c0.1,0,0.2,0,0.2,0l1-0.6c0,0,0,0,0-0.1L37.9,49.2z"/>
											<path id="XMLID_16764_" class="st45" d="M37.1,48.7l-1,0.6c-0.1,0-0.1,0.1,0,0.2l0.5,0.3c0.1,0,0.2,0,0.2,0l1-0.6
												c0.1,0,0.1-0.1,0-0.2l-0.5-0.3C37.3,48.7,37.2,48.7,37.1,48.7z"/>
										</g>
									</g>
								</g>
							</g>
							<g id="XMLID_16756_">
								<g id="XMLID_16757_">
									<path id="XMLID_16759_" class="st46" d="M48.7,42.9C48.7,42.9,48.7,42.9,48.7,42.9l-0.6-0.4c-0.1,0-0.2,0-0.2,0l-0.5,0.3
										c0,0,0,0,0,0.1V43c0,0,0,0.1,0,0.1l0.5,0.3c0.1,0,0.2,0,0.2,0l0.5-0.3c0,0,0,0,0-0.1L48.7,42.9z"/>
									<path id="XMLID_16758_" class="st45" d="M47.9,42.5l-0.5,0.3c-0.1,0-0.1,0.1,0,0.2l0.5,0.3c0.1,0,0.2,0,0.2,0l0.5-0.3
										c0.1,0,0.1-0.1,0-0.2l-0.5-0.3C48,42.4,48,42.4,47.9,42.5z"/>
								</g>
							</g>
							<g id="XMLID_16747_">
								<g id="XMLID_16752_">
									<g id="XMLID_16753_">
										<path id="XMLID_16755_" class="st46" d="M47.8,43.4C47.8,43.4,47.8,43.4,47.8,43.4l-0.6-0.4c-0.1,0-0.2,0-0.2,0l-0.5,0.3
											c0,0,0,0,0,0.1l0,0.1c0,0,0,0.1,0,0.1l0.5,0.3c0.1,0,0.2,0,0.2,0l0.5-0.3c0,0,0,0,0-0.1L47.8,43.4z"/>
										<path id="XMLID_16754_" class="st45" d="M47,43l-0.5,0.3c-0.1,0-0.1,0.1,0,0.2l0.5,0.3c0.1,0,0.2,0,0.2,0l0.5-0.3
											c0.1,0,0.1-0.1,0-0.2L47.2,43C47.1,42.9,47.1,42.9,47,43z"/>
									</g>
								</g>
								<g id="XMLID_16748_">
									<g id="XMLID_16749_">
										<path id="XMLID_16751_" class="st46" d="M46.9,44C46.9,43.9,46.9,43.9,46.9,44l-0.6-0.4c-0.1,0-0.2,0-0.2,0l-0.5,0.3
											c0,0,0,0,0,0.1l0,0.1c0,0,0,0.1,0,0.1l0.5,0.3c0.1,0,0.2,0,0.2,0l0.5-0.3c0,0,0,0,0-0.1L46.9,44z"/>
										<path id="XMLID_16750_" class="st45" d="M46.1,43.5l-0.5,0.3c-0.1,0-0.1,0.1,0,0.2l0.5,0.3c0.1,0,0.2,0,0.2,0l0.5-0.3
											c0.1,0,0.1-0.1,0-0.2l-0.5-0.3C46.3,43.5,46.2,43.5,46.1,43.5z"/>
									</g>
								</g>
							</g>
							<g id="XMLID_16738_">
								<g id="XMLID_16743_">
									<g id="XMLID_16744_">
										<path id="XMLID_16746_" class="st46" d="M46,44.5C46,44.5,46,44.4,46,44.5l-0.6-0.4c-0.1,0-0.2,0-0.2,0l-0.5,0.3
											c0,0,0,0,0,0.1v0.1c0,0,0,0.1,0,0.1l0.5,0.3c0.1,0,0.2,0,0.2,0l0.5-0.3c0,0,0,0,0-0.1L46,44.5z"/>
										<path id="XMLID_16745_" class="st45" d="M45.2,44l-0.5,0.3c-0.1,0-0.1,0.1,0,0.2l0.5,0.3c0.1,0,0.2,0,0.2,0l0.5-0.3
											c0.1,0,0.1-0.1,0-0.2L45.4,44C45.4,44,45.3,44,45.2,44z"/>
									</g>
								</g>
								<g id="XMLID_16739_">
									<g id="XMLID_16740_">
										<path id="XMLID_16742_" class="st46" d="M45.1,45C45.1,45,45.1,44.9,45.1,45l-0.6-0.4c-0.1,0-0.2,0-0.2,0l-0.5,0.3
											c0,0,0,0,0,0.1v0.1c0,0,0,0.1,0,0.1l0.5,0.3c0.1,0,0.2,0,0.2,0l0.5-0.3c0,0,0,0,0-0.1L45.1,45z"/>
										<path id="XMLID_16741_" class="st45" d="M44.3,44.5l-0.5,0.3c-0.1,0-0.1,0.1,0,0.2l0.5,0.3c0.1,0,0.2,0,0.2,0L45,45
											c0.1,0,0.1-0.1,0-0.2l-0.5-0.3C44.5,44.5,44.4,44.5,44.3,44.5z"/>
									</g>
								</g>
							</g>
							<g id="XMLID_16729_">
								<g id="XMLID_16734_">
									<g id="XMLID_16735_">
										<path id="XMLID_16737_" class="st46" d="M44.2,45.5C44.2,45.5,44.2,45.5,44.2,45.5l-0.6-0.4c-0.1,0-0.2,0-0.2,0l-0.5,0.3
											c0,0,0,0,0,0.1l0,0.1c0,0,0,0.1,0,0.1l0.5,0.3c0.1,0,0.2,0,0.2,0l0.5-0.3c0,0,0,0,0-0.1L44.2,45.5z"/>
										<path id="XMLID_16736_" class="st45" d="M43.4,45.1l-0.5,0.3c-0.1,0-0.1,0.1,0,0.2l0.5,0.3c0.1,0,0.2,0,0.2,0l0.5-0.3
											c0.1,0,0.1-0.1,0-0.2l-0.5-0.3C43.6,45,43.5,45,43.4,45.1z"/>
									</g>
								</g>
								<g id="XMLID_16730_">
									<g id="XMLID_16731_">
										<path id="XMLID_16733_" class="st46" d="M43.3,46C43.3,46,43.3,46,43.3,46l-0.6-0.4c-0.1,0-0.2,0-0.2,0L42,46
											c0,0,0,0,0,0.1l0,0.1c0,0,0,0.1,0,0.1l0.5,0.3c0.1,0,0.2,0,0.2,0l0.5-0.3c0,0,0,0,0-0.1L43.3,46z"/>
										<path id="XMLID_16732_" class="st45" d="M42.5,45.6L42,45.9c-0.1,0-0.1,0.1,0,0.2l0.5,0.3c0.1,0,0.2,0,0.2,0l0.5-0.3
											c0.1,0,0.1-0.1,0-0.2l-0.5-0.3C42.7,45.5,42.6,45.5,42.5,45.6z"/>
									</g>
								</g>
							</g>
							<g id="XMLID_16720_">
								<g id="XMLID_16725_">
									<g id="XMLID_16726_">
										<path id="XMLID_16728_" class="st46" d="M42.4,46.6C42.4,46.5,42.4,46.5,42.4,46.6l-0.6-0.4c-0.1,0-0.2,0-0.2,0l-0.5,0.3
											c0,0,0,0,0,0.1v0.1c0,0,0,0.1,0,0.1l0.5,0.3c0.1,0,0.2,0,0.2,0l0.5-0.3c0,0,0,0,0-0.1L42.4,46.6z"/>
										<path id="XMLID_16727_" class="st45" d="M41.6,46.1l-0.5,0.3c-0.1,0-0.1,0.1,0,0.2l0.5,0.3c0.1,0,0.2,0,0.2,0l0.5-0.3
											c0.1,0,0.1-0.1,0-0.2l-0.5-0.3C41.8,46.1,41.7,46.1,41.6,46.1z"/>
									</g>
								</g>
								<g id="XMLID_16721_">
									<g id="XMLID_16722_">
										<path id="XMLID_16724_" class="st46" d="M41.5,47.1C41.5,47,41.5,47,41.5,47.1l-0.6-0.4c-0.1,0-0.2,0-0.2,0L40.2,47
											c0,0,0,0,0,0.1l0,0.1c0,0,0,0.1,0,0.1l0.5,0.3c0.1,0,0.2,0,0.2,0l0.5-0.3c0,0,0,0,0-0.1L41.5,47.1z"/>
										<path id="XMLID_16723_" class="st45" d="M40.7,46.6l-0.5,0.3c-0.1,0-0.1,0.1,0,0.2l0.5,0.3c0.1,0,0.2,0,0.2,0l0.5-0.3
											c0.1,0,0.1-0.1,0-0.2l-0.5-0.3C40.9,46.6,40.8,46.6,40.7,46.6z"/>
									</g>
								</g>
							</g>
							<g id="XMLID_16711_">
								<g id="XMLID_16716_">
									<g id="XMLID_16717_">
										<path id="XMLID_16719_" class="st46" d="M40.6,47.6C40.6,47.6,40.6,47.5,40.6,47.6L40,47.2c-0.1,0-0.2,0-0.2,0l-0.5,0.3
											c0,0,0,0,0,0.1v0.1c0,0,0,0.1,0,0.1l0.5,0.3c0.1,0,0.2,0,0.2,0l0.5-0.3c0,0,0,0,0-0.1L40.6,47.6z"/>
										<path id="XMLID_16718_" class="st45" d="M39.8,47.1l-0.5,0.3c-0.1,0-0.1,0.1,0,0.2l0.5,0.3c0.1,0,0.2,0,0.2,0l0.5-0.3
											c0.1,0,0.1-0.1,0-0.2L40,47.1C40,47.1,39.9,47.1,39.8,47.1z"/>
									</g>
								</g>
								<g id="XMLID_16712_">
									<g id="XMLID_16713_">
										<path id="XMLID_16715_" class="st46" d="M39.7,48.1C39.7,48.1,39.7,48.1,39.7,48.1l-0.6-0.4c-0.1,0-0.2,0-0.2,0L38.4,48
											c0,0,0,0,0,0.1l0,0.1c0,0,0,0.1,0,0.1l0.5,0.3c0.1,0,0.2,0,0.2,0l0.5-0.3c0,0,0,0,0-0.1L39.7,48.1z"/>
										<path id="XMLID_16714_" class="st45" d="M38.9,47.7L38.4,48c-0.1,0-0.1,0.1,0,0.2l0.5,0.3c0.1,0,0.2,0,0.2,0l0.5-0.3
											c0.1,0,0.1-0.1,0-0.2l-0.5-0.3C39.1,47.6,39,47.6,38.9,47.7z"/>
									</g>
								</g>
							</g>
							<g id="XMLID_16706_">
								<g id="XMLID_16707_">
									<g id="XMLID_16708_">
										<path id="XMLID_16710_" class="st46" d="M38.8,48.6C38.8,48.6,38.8,48.6,38.8,48.6l-0.6-0.4c-0.1,0-0.2,0-0.2,0l-0.5,0.3
											c0,0,0,0,0,0.1v0.1c0,0,0,0.1,0,0.1l0.5,0.3c0.1,0,0.2,0,0.2,0l0.5-0.3c0,0,0,0,0-0.1L38.8,48.6z"/>
										<path id="XMLID_16709_" class="st45" d="M38,48.2l-0.5,0.3c-0.1,0-0.1,0.1,0,0.2l0.5,0.3c0.1,0,0.2,0,0.2,0l0.5-0.3
											c0.1,0,0.1-0.1,0-0.2l-0.5-0.3C38.2,48.1,38.1,48.1,38,48.2z"/>
									</g>
								</g>
							</g>
						</g>
						<g id="XMLID_16644_">
							<g id="XMLID_16700_">
								<g id="XMLID_16701_">
									<g id="XMLID_16702_">
										<path id="XMLID_16704_" class="st46" d="M38.5,49.8C38.5,49.8,38.5,49.8,38.5,49.8l-0.6-0.4c-0.1,0-0.2,0-0.2,0L37,49.9
											c0,0,0,0,0,0.1V50c0,0,0,0.1,0,0.1l0.5,0.3c0.1,0,0.2,0,0.2,0l0.7-0.4c0,0,0,0,0-0.1L38.5,49.8z"/>
										<path id="XMLID_16703_" class="st45" d="M37.7,49.4L37,49.8c-0.1,0-0.1,0.1,0,0.2l0.5,0.3c0.1,0,0.2,0,0.2,0l0.7-0.4
											c0.1,0,0.1-0.1,0-0.2l-0.5-0.3C37.9,49.3,37.8,49.3,37.7,49.4z"/>
									</g>
								</g>
							</g>
							<g id="XMLID_16645_">
								<g id="XMLID_16696_">
									<g id="XMLID_16697_">
										<path id="XMLID_16699_" class="st46" d="M50.3,43C50.3,43,50.3,43,50.3,43l-0.6-0.4c-0.1,0-0.2,0-0.2,0l-1.6,0.9
											c0,0,0,0,0,0.1l0,0.1c0,0,0,0.1,0,0.1l0.5,0.3c0.1,0,0.2,0,0.2,0l1.6-0.9c0,0,0,0,0-0.1L50.3,43z"/>
										<path id="XMLID_16698_" class="st45" d="M49.5,42.6l-1.6,0.9c-0.1,0-0.1,0.1,0,0.2l0.5,0.3c0.1,0,0.2,0,0.2,0l1.6-0.9
											c0.1,0,0.1-0.1,0-0.2l-0.5-0.3C49.7,42.5,49.6,42.5,49.5,42.6z"/>
									</g>
								</g>
								<g id="XMLID_16687_">
									<g id="XMLID_16692_">
										<g id="XMLID_16693_">
											<path id="XMLID_16695_" class="st46" d="M48.4,44.1C48.4,44.1,48.3,44.1,48.4,44.1l-0.6-0.4c-0.1,0-0.2,0-0.2,0L47,44.1
												c0,0,0,0,0,0.1l0,0.1c0,0,0,0.1,0,0.1l0.5,0.3c0.1,0,0.2,0,0.2,0l0.5-0.3c0,0,0,0,0-0.1L48.4,44.1z"/>
											<path id="XMLID_16694_" class="st45" d="M47.6,43.7L47,44c-0.1,0-0.1,0.1,0,0.2l0.5,0.3c0.1,0,0.2,0,0.2,0l0.5-0.3
												c0.1,0,0.1-0.1,0-0.2l-0.5-0.3C47.7,43.6,47.6,43.6,47.6,43.7z"/>
										</g>
									</g>
									<g id="XMLID_16688_">
										<g id="XMLID_16689_">
											<path id="XMLID_16691_" class="st46" d="M47.5,44.7C47.5,44.6,47.4,44.6,47.5,44.7l-0.6-0.4c-0.1,0-0.2,0-0.2,0l-0.5,0.3
												c0,0,0,0,0,0.1v0.1c0,0,0,0.1,0,0.1l0.5,0.3c0.1,0,0.2,0,0.2,0l0.5-0.3c0,0,0,0,0-0.1L47.5,44.7z"/>
											<path id="XMLID_16690_" class="st45" d="M46.7,44.2l-0.5,0.3c-0.1,0-0.1,0.1,0,0.2l0.5,0.3c0.1,0,0.2,0,0.2,0l0.5-0.3
												c0.1,0,0.1-0.1,0-0.2l-0.5-0.3C46.8,44.2,46.7,44.2,46.7,44.2z"/>
										</g>
									</g>
								</g>
								<g id="XMLID_16678_">
									<g id="XMLID_16683_">
										<g id="XMLID_16684_">
											<path id="XMLID_16686_" class="st46" d="M46.6,45.2C46.6,45.2,46.6,45.1,46.6,45.2L46,44.8c-0.1,0-0.2,0-0.2,0l-0.5,0.3
												c0,0,0,0,0,0.1v0.1c0,0,0,0.1,0,0.1l0.5,0.3c0.1,0,0.2,0,0.2,0l0.5-0.3c0,0,0,0,0-0.1L46.6,45.2z"/>
											<path id="XMLID_16685_" class="st45" d="M45.8,44.7L45.2,45c-0.1,0-0.1,0.1,0,0.2l0.5,0.3c0.1,0,0.2,0,0.2,0l0.5-0.3
												c0.1,0,0.1-0.1,0-0.2L46,44.7C45.9,44.7,45.8,44.7,45.8,44.7z"/>
										</g>
									</g>
									<g id="XMLID_16679_">
										<g id="XMLID_16680_">
											<path id="XMLID_16682_" class="st46" d="M45.7,45.7C45.7,45.7,45.7,45.6,45.7,45.7l-0.6-0.4c-0.1,0-0.2,0-0.2,0l-0.5,0.3
												c0,0,0,0,0,0.1l0,0.1c0,0,0,0.1,0,0.1l0.5,0.3c0.1,0,0.2,0,0.2,0l0.5-0.3c0,0,0,0,0-0.1L45.7,45.7z"/>
											<path id="XMLID_16681_" class="st45" d="M44.9,45.2l-0.5,0.3c-0.1,0-0.1,0.1,0,0.2l0.5,0.3c0.1,0,0.2,0,0.2,0l0.5-0.3
												c0.1,0,0.1-0.1,0-0.2l-0.5-0.3C45,45.2,44.9,45.2,44.9,45.2z"/>
										</g>
									</g>
								</g>
								<g id="XMLID_16669_">
									<g id="XMLID_16674_">
										<g id="XMLID_16675_">
											<path id="XMLID_16677_" class="st46" d="M44.8,46.2C44.8,46.2,44.8,46.2,44.8,46.2l-0.6-0.4c-0.1,0-0.2,0-0.2,0l-0.5,0.3
												c0,0,0,0,0,0.1l0,0.1c0,0,0,0.1,0,0.1l0.5,0.3c0.1,0,0.2,0,0.2,0l0.5-0.3c0,0,0,0,0-0.1L44.8,46.2z"/>
											<path id="XMLID_16676_" class="st45" d="M44,45.8l-0.5,0.3c-0.1,0-0.1,0.1,0,0.2l0.5,0.3c0.1,0,0.2,0,0.2,0l0.5-0.3
												c0.1,0,0.1-0.1,0-0.2l-0.5-0.3C44.1,45.7,44,45.7,44,45.8z"/>
										</g>
									</g>
									<g id="XMLID_16670_">
										<g id="XMLID_16671_">
											<path id="XMLID_16673_" class="st46" d="M43.9,46.7C43.9,46.7,43.9,46.7,43.9,46.7l-0.6-0.4c-0.1,0-0.2,0-0.2,0l-0.5,0.3
												c0,0,0,0,0,0.1v0.1c0,0,0,0.1,0,0.1l0.5,0.3c0.1,0,0.2,0,0.2,0l0.5-0.3c0,0,0,0,0-0.1L43.9,46.7z"/>
											<path id="XMLID_16672_" class="st45" d="M43.1,46.3l-0.5,0.3c-0.1,0-0.1,0.1,0,0.2l0.5,0.3c0.1,0,0.2,0,0.2,0l0.5-0.3
												c0.1,0,0.1-0.1,0-0.2l-0.5-0.3C43.2,46.2,43.1,46.2,43.1,46.3z"/>
										</g>
									</g>
								</g>
								<g id="XMLID_16660_">
									<g id="XMLID_16665_">
										<g id="XMLID_16666_">
											<path id="XMLID_16668_" class="st46" d="M43,47.3C43,47.2,43,47.2,43,47.3l-0.6-0.4c-0.1,0-0.2,0-0.2,0l-0.5,0.3
												c0,0,0,0,0,0.1v0.1c0,0,0,0.1,0,0.1l0.5,0.3c0.1,0,0.2,0,0.2,0l0.5-0.3c0,0,0,0,0-0.1L43,47.3z"/>
											<path id="XMLID_16667_" class="st45" d="M42.2,46.8l-0.5,0.3c-0.1,0-0.1,0.1,0,0.2l0.5,0.3c0.1,0,0.2,0,0.2,0l0.5-0.3
												c0.1,0,0.1-0.1,0-0.2l-0.5-0.3C42.3,46.8,42.2,46.8,42.2,46.8z"/>
										</g>
									</g>
									<g id="XMLID_16661_">
										<g id="XMLID_16662_">
											<path id="XMLID_16664_" class="st46" d="M42.1,47.8C42.1,47.7,42.1,47.7,42.1,47.8l-0.6-0.4c-0.1,0-0.2,0-0.2,0l-0.5,0.3
												c0,0,0,0,0,0.1l0,0.1c0,0,0,0.1,0,0.1l0.5,0.3c0.1,0,0.2,0,0.2,0L42,48c0,0,0,0,0-0.1L42.1,47.8z"/>
											<path id="XMLID_16663_" class="st45" d="M41.3,47.3l-0.5,0.3c-0.1,0-0.1,0.1,0,0.2l0.5,0.3c0.1,0,0.2,0,0.2,0l0.5-0.3
												c0.1,0,0.1-0.1,0-0.2l-0.5-0.3C41.4,47.3,41.3,47.3,41.3,47.3z"/>
										</g>
									</g>
								</g>
								<g id="XMLID_16651_">
									<g id="XMLID_16656_">
										<g id="XMLID_16657_">
											<path id="XMLID_16659_" class="st46" d="M41.2,48.3C41.2,48.3,41.2,48.2,41.2,48.3l-0.6-0.4c-0.1,0-0.2,0-0.2,0l-0.5,0.3
												c0,0,0,0,0,0.1l0,0.1c0,0,0,0.1,0,0.1l0.5,0.3c0.1,0,0.2,0,0.2,0l0.5-0.3c0,0,0,0,0-0.1L41.2,48.3z"/>
											<path id="XMLID_16658_" class="st45" d="M40.4,47.8l-0.5,0.3c-0.1,0-0.1,0.1,0,0.2l0.5,0.3c0.1,0,0.2,0,0.2,0l0.5-0.3
												c0.1,0,0.1-0.1,0-0.2l-0.5-0.3C40.5,47.8,40.5,47.8,40.4,47.8z"/>
										</g>
									</g>
									<g id="XMLID_16652_">
										<g id="XMLID_16653_">
											<path id="XMLID_16655_" class="st46" d="M40.3,48.8C40.3,48.8,40.3,48.8,40.3,48.8l-0.6-0.4c-0.1,0-0.2,0-0.2,0l-0.5,0.3
												c0,0,0,0,0,0.1v0.1c0,0,0,0.1,0,0.1l0.5,0.3c0.1,0,0.2,0,0.2,0l0.5-0.3c0,0,0,0,0-0.1L40.3,48.8z"/>
											<path id="XMLID_16654_" class="st45" d="M39.5,48.4l-0.5,0.3c-0.1,0-0.1,0.1,0,0.2l0.5,0.3c0.1,0,0.2,0,0.2,0l0.5-0.3
												c0.1,0,0.1-0.1,0-0.2l-0.5-0.3C39.6,48.3,39.6,48.3,39.5,48.4z"/>
										</g>
									</g>
								</g>
								<g id="XMLID_16646_">
									<g id="XMLID_16647_">
										<g id="XMLID_16648_">
											<path id="XMLID_16650_" class="st46" d="M39.4,49.3C39.4,49.3,39.4,49.3,39.4,49.3L38.8,49c-0.1,0-0.2,0-0.2,0L38,49.3
												c0,0,0,0,0,0.1v0.1c0,0,0,0.1,0,0.1l0.5,0.3c0.1,0,0.2,0,0.2,0l0.5-0.3c0,0,0,0,0-0.1L39.4,49.3z"/>
											<path id="XMLID_16649_" class="st45" d="M38.6,48.9L38,49.2c-0.1,0-0.1,0.1,0,0.2l0.5,0.3c0.1,0,0.2,0,0.2,0l0.5-0.3
												c0.1,0,0.1-0.1,0-0.2l-0.5-0.3C38.7,48.8,38.7,48.8,38.6,48.9z"/>
										</g>
									</g>
								</g>
							</g>
						</g>
						<g id="XMLID_16587_">
							<g id="XMLID_16603_">
								<g id="XMLID_16639_">
									<g id="XMLID_16640_">
										<g id="XMLID_16641_">
											<path id="XMLID_16643_" class="st46" d="M46.8,46.1C46.8,46,46.8,46,46.8,46.1l-0.6-0.4c-0.1,0-0.2,0-0.2,0l-4.5,2.6
												c0,0,0,0,0,0.1l0,0.1c0,0,0,0.1,0,0.1l0.5,0.3c0.1,0,0.2,0,0.2,0l4.5-2.6c0,0,0,0,0-0.1L46.8,46.1z"/>
											<path id="XMLID_16642_" class="st45" d="M46,45.6l-4.5,2.6c-0.1,0-0.1,0.1,0,0.2l0.5,0.3c0.1,0,0.2,0,0.2,0l4.5-2.6
												c0.1,0,0.1-0.1,0-0.2l-0.5-0.3C46.2,45.6,46.1,45.6,46,45.6z"/>
										</g>
									</g>
								</g>
								<g id="XMLID_16634_">
									<g id="XMLID_16635_">
										<g id="XMLID_16636_">
											<path id="XMLID_16638_" class="st46" d="M39.1,50.5C39.1,50.5,39.1,50.5,39.1,50.5l-0.6-0.4c-0.1,0-0.2,0-0.2,0l-0.4,0.3
												c0,0,0,0,0,0.1l0,0.1c0,0,0,0.1,0,0.1l0.5,0.3c0.1,0,0.2,0,0.2,0l0.4-0.3c0,0,0,0,0-0.1L39.1,50.5z"/>
											<path id="XMLID_16637_" class="st45" d="M38.3,50.1l-0.4,0.3c-0.1,0-0.1,0.1,0,0.2l0.5,0.3c0.1,0,0.2,0,0.2,0l0.4-0.3
												c0.1,0,0.1-0.1,0-0.2l-0.5-0.3C38.5,50,38.4,50,38.3,50.1z"/>
										</g>
									</g>
								</g>
								<g id="XMLID_16629_">
									<g id="XMLID_16630_">
										<g id="XMLID_16631_">
											<path id="XMLID_16633_" class="st46" d="M40,50C39.9,50,39.9,50,40,50l-0.6-0.4c-0.1,0-0.2,0-0.2,0l-0.4,0.3
												c0,0,0,0,0,0.1v0.1c0,0,0,0.1,0,0.1l0.5,0.3c0.1,0,0.2,0,0.2,0l0.4-0.3c0,0,0,0,0-0.1L40,50z"/>
											<path id="XMLID_16632_" class="st45" d="M39.1,49.6l-0.4,0.3c-0.1,0-0.1,0.1,0,0.2l0.5,0.3c0.1,0,0.2,0,0.2,0l0.4-0.3
												c0.1,0,0.1-0.1,0-0.2l-0.5-0.3C39.3,49.5,39.2,49.5,39.1,49.6z"/>
										</g>
									</g>
								</g>
								<g id="XMLID_16624_">
									<g id="XMLID_16625_">
										<g id="XMLID_16626_">
											<path id="XMLID_16628_" class="st46" d="M40.8,49.6C40.8,49.5,40.8,49.5,40.8,49.6l-0.6-0.4c-0.1,0-0.2,0-0.2,0l-0.4,0.3
												c0,0,0,0,0,0.1l0,0.1c0,0,0,0.1,0,0.1L40,50c0.1,0,0.2,0,0.2,0l0.4-0.3c0,0,0,0,0-0.1L40.8,49.6z"/>
											<path id="XMLID_16627_" class="st45" d="M40,49.1l-0.4,0.3c-0.1,0-0.1,0.1,0,0.2l0.5,0.3c0.1,0,0.2,0,0.2,0l0.4-0.3
												c0.1,0,0.1-0.1,0-0.2l-0.5-0.3C40.1,49.1,40,49.1,40,49.1z"/>
										</g>
									</g>
								</g>
								<g id="XMLID_16619_">
									<g id="XMLID_16620_">
										<g id="XMLID_16621_">
											<path id="XMLID_16623_" class="st46" d="M41.9,48.9C41.9,48.9,41.9,48.8,41.9,48.9l-0.6-0.4c-0.1,0-0.2,0-0.2,0L40.3,49
												c0,0,0,0,0,0.1l0,0.1c0,0,0,0.1,0,0.1l0.5,0.3c0.1,0,0.2,0,0.2,0l0.8-0.4c0,0,0,0,0-0.1L41.9,48.9z"/>
											<path id="XMLID_16622_" class="st45" d="M41.1,48.4l-0.8,0.4c-0.1,0-0.1,0.1,0,0.2l0.5,0.3c0.1,0,0.2,0,0.2,0l0.8-0.4
												c0.1,0,0.1-0.1,0-0.2l-0.5-0.3C41.3,48.4,41.2,48.4,41.1,48.4z"/>
										</g>
									</g>
								</g>
								<g id="XMLID_16614_">
									<g id="XMLID_16615_">
										<g id="XMLID_16616_">
											<path id="XMLID_16618_" class="st46" d="M47.9,45.4C47.9,45.4,47.9,45.4,47.9,45.4l-0.6-0.4c-0.1,0-0.2,0-0.2,0l-0.8,0.4
												c0,0,0,0,0,0.1v0.1c0,0,0,0.1,0,0.1l0.5,0.3c0.1,0,0.2,0,0.2,0l0.8-0.4c0,0,0,0,0-0.1L47.9,45.4z"/>
											<path id="XMLID_16617_" class="st45" d="M47.1,45l-0.8,0.4c-0.1,0-0.1,0.1,0,0.2l0.5,0.3c0.1,0,0.2,0,0.2,0l0.8-0.4
												c0.1,0,0.1-0.1,0-0.2L47.4,45C47.3,44.9,47.2,44.9,47.1,45z"/>
										</g>
									</g>
								</g>
								<g id="XMLID_16609_">
									<g id="XMLID_16610_">
										<g id="XMLID_16611_">
											<path id="XMLID_16613_" class="st46" d="M48.8,44.9C48.8,44.9,48.7,44.9,48.8,44.9l-0.6-0.4c-0.1,0-0.2,0-0.2,0l-0.4,0.3
												c0,0,0,0,0,0.1l0,0.1c0,0,0,0.1,0,0.1l0.5,0.3c0.1,0,0.2,0,0.2,0l0.4-0.3c0,0,0,0,0-0.1L48.8,44.9z"/>
											<path id="XMLID_16612_" class="st45" d="M48,44.5l-0.4,0.3c-0.1,0-0.1,0.1,0,0.2l0.5,0.3c0.1,0,0.2,0,0.2,0l0.4-0.3
												c0.1,0,0.1-0.1,0-0.2l-0.5-0.3C48.1,44.4,48,44.4,48,44.5z"/>
										</g>
									</g>
								</g>
								<g id="XMLID_16604_">
									<g id="XMLID_16605_">
										<g id="XMLID_16606_">
											<path id="XMLID_16608_" class="st46" d="M51.2,43.5C51.2,43.5,51.2,43.5,51.2,43.5l-0.1-0.1c-0.1,0-0.2,0-0.2,0l-0.4,0.3
												c0,0,0,0,0,0.1v0.1c0,0,0,0.1,0,0.1l0.1,0.1c0.1,0,0.2,0,0.2,0l0.4-0.3c0,0,0,0,0-0.1L51.2,43.5z"/>
											<path id="XMLID_16607_" class="st45" d="M50.8,43.3l-0.4,0.3c-0.1,0-0.1,0.1,0,0.2l0.1,0.1c0.1,0,0.2,0,0.2,0l0.4-0.3
												c0.1,0,0.1-0.1,0-0.2l-0.1-0.1C51,43.3,50.9,43.3,50.8,43.3z"/>
										</g>
									</g>
								</g>
							</g>
							<g id="XMLID_16598_">
								<g id="XMLID_16599_">
									<g id="XMLID_16600_">
										<path id="XMLID_16602_" class="st46" d="M49.6,44.5C49.6,44.4,49.6,44.4,49.6,44.5l-0.1-0.1c-0.1,0-0.2,0-0.2,0l-0.4,0.3
											c0,0,0,0,0,0.1v0.1c0,0,0,0.1,0,0.1l0.1,0.1c0.1,0,0.2,0,0.2,0l0.4-0.3c0,0,0,0,0-0.1L49.6,44.5z"/>
										<path id="XMLID_16601_" class="st45" d="M49.2,44.3l-0.4,0.3c-0.1,0-0.1,0.1,0,0.2l0.1,0.1c0.1,0,0.2,0,0.2,0l0.4-0.3
											c0.1,0,0.1-0.1,0-0.2l-0.1-0.1C49.4,44.2,49.3,44.2,49.2,44.3z"/>
									</g>
								</g>
							</g>
							<g id="XMLID_16593_">
								<g id="XMLID_16594_">
									<g id="XMLID_16595_">
										<path id="XMLID_16597_" class="st46" d="M50,43.8C50,43.7,49.9,43.7,50,43.8l-0.1-0.1c-0.1,0-0.2,0-0.2,0l-0.4,0.3
											c0,0,0,0,0,0.1v0.1c0,0,0,0.1,0,0.1l0.1,0.1c0.1,0,0.2,0,0.2,0l0.4-0.3c0,0,0,0,0-0.1L50,43.8z"/>
										<path id="XMLID_16596_" class="st45" d="M49.6,43.5l-0.4,0.3c-0.1,0-0.1,0.1,0,0.2l0.1,0.1c0.1,0,0.2,0,0.2,0l0.4-0.3
											c0.1,0,0.1-0.1,0-0.2l-0.1-0.1C49.8,43.5,49.7,43.5,49.6,43.5z"/>
									</g>
								</g>
							</g>
							<g id="XMLID_16588_">
								<g id="XMLID_16589_">
									<g id="XMLID_16590_">
										<path id="XMLID_16592_" class="st46" d="M50.4,44C50.4,44,50.4,43.9,50.4,44l-0.1-0.1c-0.1,0-0.2,0-0.2,0l-0.4,0.3
											c0,0,0,0,0,0.1l0,0.1c0,0,0,0.1,0,0.1l0.1,0.1c0.1,0,0.2,0,0.2,0l0.4-0.3c0,0,0,0,0-0.1L50.4,44z"/>
										<path id="XMLID_16591_" class="st45" d="M50,43.8L49.6,44c-0.1,0-0.1,0.1,0,0.2l0.1,0.1c0.1,0,0.2,0,0.2,0l0.4-0.3
											c0.1,0,0.1-0.1,0-0.2l-0.1-0.1C50.2,43.7,50.1,43.7,50,43.8z"/>
									</g>
								</g>
							</g>
						</g>
					</g>
				</g>
			</g>
			<g id="XMLID_16580_">
				<path id="XMLID_16583_" class="st48" d="M57.8,35.3l4.4,2.5c0.8,0.5,0.8,1.6,0,2.1l-4.4,2.5c-0.9,0.5-1.9,0.5-2.8,0l-4.4-2.5
					c-0.8-0.5-0.8-1.6,0-2.1l4.4-2.5C55.9,34.8,56.9,34.8,57.8,35.3z"/>
				<path id="XMLID_16582_" class="st49" d="M57.8,35.1l4.4,2.5c0.8,0.5,0.8,1.6,0,2.1l-4.4,2.5c-0.9,0.5-1.9,0.5-2.8,0l-4.4-2.5
					c-0.8-0.5-0.8-1.6,0-2.1l4.4-2.5C55.9,34.6,56.9,34.6,57.8,35.1z"/>
				<path id="XMLID_16581_" class="st50" d="M57.8,42.3c-0.9,0.5-1.9,0.5-2.8,0l-4.4-2.5c-0.8-0.5-0.8-1.6,0-2.1l4.4-2.5
					c0.9-0.5,1.9-0.5,2.8,0"/>
			</g>
			<g id="XMLID_16568_">
				<g id="XMLID_16578_">
					<path id="XMLID_16579_" class="st51" d="M34.5,36c4.3-1.3,9.2-2,12.2-1.8c4.1,0.3,7.7,3.3,7.8,3.3l-0.1,0.1c0,0-3.6-3-7.7-3.3
						c-3-0.2-7.9,0.5-12.2,1.8L34.5,36z"/>
				</g>
				<g id="XMLID_16569_">
					<g id="XMLID_16575_">
						<g id="XMLID_16576_">
							<path id="XMLID_16577_" class="st51" d="M58.7,38.4l-2.1-1.2c-0.5-0.3-1.2-0.4-1.9-0.3l0,0c-1.4,0.3-1.7,1.6-0.6,2.2l2.1,1.2
								c0.5,0.3,1.2,0.4,1.9,0.3l0,0C59.5,40.3,59.8,39.1,58.7,38.4z"/>
						</g>
					</g>
					<g id="XMLID_16572_">
						<path id="XMLID_16574_" class="st52" d="M59.2,38.7c-0.1-0.2-0.7-0.9-1.7-1.4c-0.6-0.3-1-0.5-1.3-0.5c-1.4,0.1-2,1.5-2.2,2
							c0.2,0.1,0.6,0.2,1,0.5c0.8,0.5,1.7,1.2,2,1.3c0.4,0.1,0.7,0.1,1.1,0C59.2,40.2,59.7,39.3,59.2,38.7z"/>
						<path id="XMLID_16573_" class="st53" d="M56.2,36.7c-0.2,0-0.3,0-0.5-0.1c-0.3,0-0.7,0-1,0.1c-1.1,0.3-1.5,1-1.2,1.7
							c0.1,0.1,0.2,0.2,0.4,0.3C54.2,38.2,54.8,36.8,56.2,36.7z"/>
					</g>
					<g id="XMLID_16570_">
						<path id="XMLID_16571_" class="st52" d="M54.9,37.3c-0.2-0.1-0.5-0.2-0.8-0.3c0,0-0.1,0-0.1,0.1
							C54.2,37.2,54.5,37.2,54.9,37.3C54.8,37.4,54.8,37.3,54.9,37.3z"/>
					</g>
				</g>
			</g>
			<g id="XMLID_16554_">
				<g id="XMLID_16562_">
					<path id="XMLID_16567_" class="st47" d="M38,38.7l-3.2-1.9c-0.8-0.5-1.8-0.5-2.6,0l-4.3,2.5c-0.3,0.2-0.5,0.5-0.5,0.9
						c0,0.1,0,0.5,0,0.7c0,0.3,0.2,0.6,0.5,0.8l3.2,1.9c0.8,0.5,1.8,0.5,2.6,0L38,41c0.3-0.2,0.5-0.7,0.5-1c0-0.1,0-0.4,0-0.5
						C38.4,39.1,38.3,38.9,38,38.7z"/>
					<path class="st54" d="M32.5,36.7h-0.3c0,0-0.1,0-0.1,0.1l-4.3,2.5c-0.3,0.2-0.5,0.5-0.5,0.9c0,0.1,0,0.5,0,0.7
						c0,0.3,0.2,0.6,0.5,0.8l3.2,1.9c0.5,0.3,1,0.4,1.5,0.3V36.7z"/>
					<path id="XMLID_16566_" class="st55" d="M34.7,36.8l3.2,1.9c0.7,0.4,0.7,1.3,0,1.7l-4.3,2.5c-0.8,0.5-1.8,0.5-2.6,0L27.8,41
						c-0.7-0.4-0.7-1.3,0-1.7l4.3-2.5C32.9,36.3,33.9,36.3,34.7,36.8z"/>
					<path id="XMLID_16565_" class="st47" d="M33.6,42.9c-0.8,0.5-1.8,0.5-2.6,0L27.8,41c-0.7-0.4-0.7-1.3,0-1.7l4.3-2.5
						c0.8-0.5,1.8-0.5,2.6,0"/>
					<path class="st56" d="M33.6,42.9l1-0.6c0,0,0,0,0,0c0-0.1,0-3.4,0-3.4c0-0.1-0.1-0.3-0.2-0.3l-0.8-0.4c-0.4-0.2-0.8-0.2-1.2,0
						l-1.9,1.1c-0.1,0.1-0.2,0.2-0.2,0.4c0,0,0,1.9,0,2.9l0.7,0.4C31.8,43.4,32.8,43.4,33.6,42.9z"/>
					<g id="XMLID_16563_">
						<path id="XMLID_16564_" class="st57" d="M34.4,35.3l-0.8-0.4c-0.4-0.2-0.8-0.2-1.2,0L30.6,36c-0.1,0.1-0.2,0.2-0.2,0.4
							c0,0.1,0,3.4,0,3.5c0,0.1,0.1,0.3,0.2,0.3l0.8,0.4c0.4,0.2,0.8,0.2,1.2,0l1.9-1.1c0.1-0.1,0.2-0.3,0.2-0.5c0-0.1,0-3.4,0-3.4
							C34.6,35.5,34.6,35.4,34.4,35.3z"/>
					</g>
					<path class="st58" d="M32.1,35.1L30.6,36c-0.1,0.1-0.2,0.2-0.2,0.4c0,0.1,0,3.4,0,3.5c0,0.1,0.1,0.3,0.2,0.3l0.8,0.4
						c0.2,0.1,0.5,0.2,0.7,0.1V35.1z"/>
					<path class="st58" d="M34.4,35.3l-0.8-0.4c-0.4-0.2-0.8-0.2-1.2,0L30.6,36c-0.1,0.1-0.2,0.2-0.2,0.4c0,0,0,0.5,0,1.2
						c0,0.4,0,0.6,0,0.7c0,0.1,0.1,0.3,0.2,0.3l0.8,0.4c0.4,0.2,0.8,0.2,1.2,0l1.9-1.1c0.1-0.1,0.2-0.3,0.2-0.5c0,0,0-0.4,0-0.9
						c0-0.5,0-0.8,0-0.8C34.6,35.5,34.6,35.4,34.4,35.3z"/>
				</g>
				<g id="XMLID_16555_">
					<polygon id="XMLID_16561_" class="st59" points="23.4,27.4 23.4,42.7 22.7,42.3 22.7,27 					"/>
					<polygon id="XMLID_16560_" class="st60" points="23.4,27.4 41.4,17 40.7,16.6 22.7,27 					"/>
					<polygon id="XMLID_16559_" class="st61" points="41.4,17 41.4,32.3 23.4,42.7 23.4,27.4 					"/>
					<polyline id="XMLID_16558_" class="st47" points="23.4,42.7 23.4,27.4 41.4,17 					"/>
					<polygon id="XMLID_16557_" class="st62" points="40.3,18.6 40.3,31.8 24.4,41 24.4,27.8 					"/>
					<polygon id="XMLID_16556_" class="st63" points="40.3,18.6 40.3,31.8 24.4,41 					"/>
					<polygon class="st64" points="24.4,40.6 40,31.6 40,18.8 24.4,27.8 					"/>
					<polygon class="st65" points="40.3,18.6 24.4,27.8 24.4,29 40.3,19.8 					"/>
				</g>
			</g>
		</g>
	</g>
	<g id="XMLID_16993_">
		<g id="XMLID_16994_">
			<path id="XMLID_17002_" class="st66" d="M82.8,31.5l-7-4.1c-0.2-0.1-0.3-0.1-0.5,0l-5.1,2.9c0,0,0,0,0,0
				c-0.6,0.3-0.8,0.9-0.6,1.1c0,0,7.4,4.3,7.5,4.3c0.2,0.1,0.5-0.1,0.5-0.1s0.1-0.3,0.1-0.3l5.1-2.9V31.5z"/>
			<path class="st67" d="M75.2,27.4l-5.1,2.9c0,0,0,0,0,0c-0.1,0.1-0.3,0.2-0.4,0.3c1.3,0.7,7.2,4.2,7.3,4.2
				c0.2,0.1,0.5-0.1,0.5-0.1s0.1-0.3,0.1-0.3l5.1-2.9v-0.1l-7-4.1C75.6,27.3,75.4,27.3,75.2,27.4z"/>
			<path class="st68" d="M70.1,30.4"/>
			<path class="st68" d="M77.1,34.9c0.2,0.1,0.5-0.1,0.5-0.1s0.1-0.3,0.1-0.3l5.1-2.9v-0.1l-7-4.1c-0.2-0.1-0.3-0.1-0.5,0"/>
			<g id="XMLID_17000_">
				<path id="XMLID_17001_" class="st66" d="M82.6,32.3c0.1-0.1,0.1-0.2,0.1-0.2c0-0.1,0-0.4-0.1-0.3c-0.1,0.1-4,2.3-4.9,2.8
					c-0.9,0.5-0.9,1.6,0,1c0.9-0.5,4.8-2.8,4.9-2.8c0.1-0.1,0.1-0.1,0.1-0.2C82.7,32.6,82.7,32.2,82.6,32.3L82.6,32.3z"/>
			</g>
			<g id="XMLID_16998_">
				<path id="XMLID_16999_" class="st69" d="M82.6,31.5c-0.1,0.1-4.5,2.5-5.4,3c-0.6,0.4-0.4,1.8,0.5,1.2c0.9-0.5,4.9-2.8,5-2.9
					c0.1-0.1,0.2-0.2,0.2-0.2c0-0.1,0.1-0.3-0.1-0.5c0,0,0.1-0.1,0.1-0.2C82.9,31.5,82.7,31.4,82.6,31.5z"/>
			</g>
			<g id="XMLID_16996_">
				<path id="XMLID_16997_" class="st70" d="M82.6,32.1c0.1-0.1,0.1-0.2,0.1-0.2c0-0.1,0-0.3-0.1-0.2c-0.1,0.1-4.2,2.4-5.1,2.9
					c-0.6,0.3-0.3,1.1,0.2,0.8c0.9-0.5,4.7-2.7,4.9-2.8c0.1-0.1,0.1-0.1,0.1-0.2c0-0.1,0-0.3-0.1-0.2V32.1z"/>
			</g>
			<path id="XMLID_16995_" class="st69" d="M82.6,32.1c0,0-3.7,2.1-4.7,2.6c-0.1,0.1-0.3,0.1-0.3,0.1c-0.1,0.1,0.1,0.1,0.1,0.2
				c0,0.1-0.1,0.3,0.1,0.2c0,0,0.1-0.2,0.2-0.2c0.8-0.5,3.5-2.1,4.6-2.7V32.1z"/>
		</g>
	</g>
	<g id="XMLID_17003_">
		<g id="XMLID_17004_">
			<path id="XMLID_17012_" class="st66" d="M82.8,30.2l-7-4.1c-0.2-0.1-0.3-0.1-0.5,0l-5.1,2.9c0,0,0,0,0,0
				c-0.6,0.3-0.8,0.9-0.6,1.1c0,0,7.4,4.3,7.5,4.3c0.2,0.1,0.5-0.1,0.5-0.1s0.1-0.3,0.1-0.3l5.1-2.9V30.2z"/>
			<path class="st67" d="M75.2,26.2l-5.1,2.9c0,0,0,0,0,0c-0.1,0.1-0.3,0.2-0.4,0.3c1.3,0.7,7.2,4.2,7.3,4.2
				c0.2,0.1,0.5-0.1,0.5-0.1s0.1-0.3,0.1-0.3l5.1-2.9v-0.1l-7-4.1C75.6,26.1,75.4,26.1,75.2,26.2z"/>
			<path class="st68" d="M70.1,29.1"/>
			<path class="st68" d="M77.1,33.6c0.2,0.1,0.5-0.1,0.5-0.1s0.1-0.3,0.1-0.3l5.1-2.9v-0.1l-7-4.1c-0.2-0.1-0.3-0.1-0.5,0"/>
			<g id="XMLID_17010_">
				<path id="XMLID_17011_" class="st66" d="M82.6,31.1c0.1-0.1,0.1-0.2,0.1-0.2c0-0.1,0-0.4-0.1-0.3c-0.1,0.1-4,2.3-4.9,2.8
					c-0.9,0.5-0.9,1.6,0,1c0.9-0.5,4.8-2.8,4.9-2.8c0.1-0.1,0.1-0.1,0.1-0.2C82.7,31.3,82.7,31,82.6,31.1L82.6,31.1z"/>
			</g>
			<g id="XMLID_17008_">
				<path id="XMLID_17009_" class="st69" d="M82.6,30.2c-0.1,0.1-4.5,2.5-5.4,3c-0.6,0.4-0.4,1.8,0.5,1.2c0.9-0.5,4.9-2.8,5-2.9
					c0.1-0.1,0.2-0.2,0.2-0.2c0-0.1,0.1-0.3-0.1-0.5c0,0,0.1-0.1,0.1-0.2C82.9,30.2,82.7,30.2,82.6,30.2z"/>
			</g>
			<g id="XMLID_17006_">
				<path id="XMLID_17007_" class="st70" d="M82.6,30.8c0.1-0.1,0.1-0.2,0.1-0.2c0-0.1,0-0.3-0.1-0.2c-0.1,0.1-4.2,2.4-5.1,2.9
					c-0.6,0.3-0.3,1.1,0.2,0.8c0.9-0.5,4.7-2.7,4.9-2.8c0.1-0.1,0.1-0.1,0.1-0.2s0-0.3-0.1-0.2V30.8z"/>
			</g>
			<path id="XMLID_17005_" class="st69" d="M82.6,30.8c0,0-3.7,2.1-4.7,2.6c-0.1,0.1-0.3,0.1-0.3,0.1c-0.1,0.1,0.1,0.1,0.1,0.2
				c0,0.1-0.1,0.3,0.1,0.2c0,0,0.1-0.2,0.2-0.2c0.8-0.5,3.5-2.1,4.6-2.7V30.8z"/>
		</g>
	</g>
	<g id="XMLID_17013_">
		<g id="XMLID_17014_">
			<path id="XMLID_17022_" class="st66" d="M82.8,29l-7-4.1c-0.2-0.1-0.3-0.1-0.5,0l-5.1,2.9c0,0,0,0,0,0c-0.6,0.3-0.8,0.9-0.6,1.1
				c0,0,7.4,4.3,7.5,4.3c0.2,0.1,0.5-0.1,0.5-0.1s0.1-0.3,0.1-0.3l5.1-2.9V29z"/>
			<path class="st67" d="M75.2,24.9l-5.1,2.9c0,0,0,0,0,0c-0.1,0.1-0.3,0.2-0.4,0.3c1.3,0.7,7.2,4.2,7.3,4.2
				c0.2,0.1,0.5-0.1,0.5-0.1s0.1-0.3,0.1-0.3l5.1-2.9V29l-7-4.1C75.6,24.8,75.4,24.8,75.2,24.9z"/>
			<path class="st68" d="M70.1,27.9"/>
			<path class="st68" d="M77.1,32.4c0.2,0.1,0.5-0.1,0.5-0.1s0.1-0.3,0.1-0.3l5.1-2.9V29l-7-4.1c-0.2-0.1-0.3-0.1-0.5,0"/>
			<g id="XMLID_17020_">
				<path id="XMLID_17021_" class="st66" d="M82.6,29.8c0.1-0.1,0.1-0.2,0.1-0.2c0-0.1,0-0.4-0.1-0.3c-0.1,0.1-4,2.3-4.9,2.8
					c-0.9,0.5-0.9,1.6,0,1c0.9-0.5,4.8-2.8,4.9-2.8c0.1-0.1,0.1-0.1,0.1-0.2C82.7,30.1,82.7,29.7,82.6,29.8L82.6,29.8z"/>
			</g>
			<g id="XMLID_17018_">
				<path id="XMLID_17019_" class="st69" d="M82.6,29c-0.1,0.1-4.5,2.5-5.4,3c-0.6,0.4-0.4,1.8,0.5,1.2c0.9-0.5,4.9-2.8,5-2.9
					c0.1-0.1,0.2-0.2,0.2-0.2c0-0.1,0.1-0.3-0.1-0.5c0,0,0.1-0.1,0.1-0.2C82.9,29,82.7,28.9,82.6,29z"/>
			</g>
			<g id="XMLID_17016_">
				<path id="XMLID_17017_" class="st70" d="M82.6,29.6c0.1-0.1,0.1-0.2,0.1-0.2c0-0.1,0-0.3-0.1-0.2c-0.1,0.1-4.2,2.4-5.1,2.9
					c-0.6,0.3-0.3,1.1,0.2,0.8c0.9-0.5,4.7-2.7,4.9-2.8c0.1-0.1,0.1-0.1,0.1-0.2s0-0.3-0.1-0.2V29.6z"/>
			</g>
			<path id="XMLID_17015_" class="st69" d="M82.6,29.6c0,0-3.7,2.1-4.7,2.6c-0.1,0.1-0.3,0.1-0.3,0.1c-0.1,0.1,0.1,0.1,0.1,0.2
				c0,0.1-0.1,0.3,0.1,0.2c0,0,0.1-0.2,0.2-0.2c0.8-0.5,3.5-2.1,4.6-2.7V29.6z"/>
		</g>
	</g>
	<g id="XMLID_17023_">
		<g id="XMLID_17074_">
			<g id="XMLID_17078_">
				<path id="XMLID_17080_" class="st71" d="M69.3,62.6c0-0.2-0.1-0.4-0.4-0.6l0,0c-0.3-0.2-0.8-0.3-1.2-0.2v0
					c-0.5,0.1-0.8,0.4-0.8,0.8c0,0.2,0,5.3,0,5.5c0,0.2,0.1,0.5,0.4,0.6c0.3,0.2,0.8,0.3,1.2,0.2l0,0c0.5-0.1,0.8-0.4,0.8-0.8V62.6z
					"/>
				<path id="XMLID_17079_" class="st10" d="M68.8,62L68.8,62c0.7,0.4,0.5,1.2-0.4,1.4l0,0c-0.4,0.1-0.9,0-1.2-0.2l0,0
					c-0.7-0.4-0.5-1.2,0.4-1.4l0,0C68,61.7,68.5,61.8,68.8,62z"/>
			</g>
			<path id="XMLID_17077_" class="st72" d="M69.2,61.7L69.2,61.7c0,0-5.8-3.4-5.8-3.4l0,0c-0.5-0.3-1.2-0.4-1.8-0.2l0,0
				c-1.3,0.3-1.7,1.5-0.6,2.1c0,0,5.8,3.4,5.8,3.4l0,0c0.5,0.3,1.2,0.4,1.8,0.2l0,0C70,63.5,70.3,62.3,69.2,61.7z"/>
			<path id="XMLID_17076_" class="st73" d="M70.1,61.8c0-0.3-0.2-0.7-0.7-0.9l0,0c0,0-6.1-3.6-6.1-3.6l0,0c-0.5-0.3-1.2-0.4-1.9-0.2
				l0,0c-0.8,0.2-1.2,0.6-1.3,1.1c0,0.1,0,0.5,0,0.5c0,0.3,0.2,0.7,0.7,0.9c0,0,6.1,3.5,6.1,3.6c0.5,0.3,1.2,0.4,1.9,0.2l0,0
				c0.8-0.2,1.2-0.6,1.3-1.1C70.1,62.2,70.1,61.8,70.1,61.8z"/>
			<path id="XMLID_17075_" class="st63" d="M69.2,60.3L69.2,60.3c0,0-5.8-3.4-5.8-3.4l0,0c-0.5-0.3-1.2-0.4-1.8-0.2l0,0
				c-1.3,0.3-1.7,1.5-0.6,2.1c0,0,5.8,3.4,5.8,3.4l0,0c0.5,0.3,1.2,0.4,1.8,0.2l0,0C70,62.1,70.3,60.9,69.2,60.3z"/>
		</g>
		<g id="XMLID_17043_">
			<path id="XMLID_17073_" class="st30" d="M62.2,84.6L62.2,84.6c0.9,0.6,0.6,1.6-0.5,1.9l0,0c-0.5,0.1-1.2,0-1.6-0.2l0,0
				c-0.9-0.6-0.6-1.6,0.5-1.9h0C61.2,84.3,61.8,84.4,62.2,84.6z"/>
			<path id="XMLID_17072_" class="st30" d="M62.2,84.6L62.2,84.6c0.9,0.6,0.6,1.6-0.5,1.9l0,0c-0.5,0.1-1.2,0-1.6-0.2l0,0
				c-0.9-0.6-0.6-1.6,0.5-1.9h0C61.2,84.3,61.8,84.4,62.2,84.6z"/>
			<path id="XMLID_17071_" class="st30" d="M65.6,78.4L65.6,78.4c0.9,0.6,0.6,1.6-0.5,1.9l0,0c-0.5,0.1-1.2,0-1.6-0.2l0,0
				c-0.9-0.6-0.6-1.6,0.5-1.9l0,0C64.6,78.1,65.2,78.2,65.6,78.4z"/>
			<path id="XMLID_17070_" class="st30" d="M53.1,80.3L53.1,80.3c0.9,0.6,0.6,1.6-0.5,1.9l0,0c-0.5,0.1-1.2,0-1.6-0.2l0,0
				c-0.9-0.6-0.6-1.6,0.5-1.9l0,0C52.1,80,52.7,80.1,53.1,80.3z"/>
			<path id="XMLID_17069_" class="st30" d="M54,89.9L54,89.9c0.9,0.6,0.6,1.6-0.5,1.9l0,0c-0.5,0.1-1.2,0-1.6-0.2l0,0
				c-0.9-0.6-0.6-1.6,0.5-1.9l0,0C52.9,89.6,53.5,89.7,54,89.9z"/>
			<path id="XMLID_17068_" class="st30" d="M65.4,92.1L65.4,92.1c0.9,0.6,0.6,1.6-0.5,1.9l0,0c-0.5,0.1-1.2,0-1.6-0.2l0,0
				c-0.9-0.6-0.6-1.6,0.5-1.9l0,0C64.4,91.7,65,91.8,65.4,92.1z"/>
			<path id="XMLID_17067_" class="st30" d="M73.1,84.4L73.1,84.4c0.9,0.6,0.6,1.6-0.5,1.9l0,0c-0.5,0.1-1.2,0-1.6-0.2l0,0
				c-0.9-0.6-0.6-1.6,0.5-1.9l0,0C72,84.1,72.6,84.1,73.1,84.4z"/>
			<path id="XMLID_17066_" class="st74" d="M53.1,81.2L53.1,81.2c0.9,0.6,0.6,1.6-0.5,1.9l0,0c-0.5,0.1-1.2,0-1.6-0.2l0,0
				c-0.9-0.6-0.6-1.6,0.5-1.9l0,0C52.1,80.9,52.7,81,53.1,81.2z"/>
			<path id="XMLID_17065_" class="st74" d="M65.6,79.3L65.6,79.3c0.9,0.6,0.6,1.6-0.5,1.9l0,0c-0.5,0.1-1.2,0-1.6-0.2l0,0
				c-0.9-0.6-0.6-1.6,0.5-1.9l0,0C64.6,79,65.2,79.1,65.6,79.3z"/>
			<path id="XMLID_17064_" class="st74" d="M54,90.8L54,90.8c0.9,0.6,0.6,1.6-0.5,1.9l0,0c-0.5,0.1-1.2,0-1.6-0.2l0,0
				c-0.9-0.6-0.6-1.6,0.5-1.9l0,0C52.9,90.5,53.5,90.6,54,90.8z"/>
			<path id="XMLID_17063_" class="st74" d="M65.4,93L65.4,93c0.9,0.6,0.6,1.6-0.5,1.9l0,0c-0.5,0.1-1.2,0-1.6-0.2l0,0
				c-0.9-0.6-0.6-1.6,0.5-1.9l0,0C64.4,92.6,65,92.7,65.4,93z"/>
			<path id="XMLID_17062_" class="st74" d="M73.1,85.3L73.1,85.3c0.9,0.6,0.6,1.6-0.5,1.9l0,0c-0.5,0.1-1.2,0-1.6-0.2l0,0
				c-0.9-0.6-0.6-1.6,0.5-1.9l0,0C72,85,72.6,85,73.1,85.3z"/>
			<path id="XMLID_17061_" class="st74" d="M53.1,81.8L53.1,81.8c0.9,0.6,0.6,1.6-0.5,1.9l0,0c-0.5,0.1-1.2,0-1.6-0.2l0,0
				c-0.9-0.6-0.6-1.6,0.5-1.9l0,0C52.1,81.4,52.7,81.5,53.1,81.8z"/>
			<path id="XMLID_17060_" class="st74" d="M65.6,79.8L65.6,79.8c0.9,0.6,0.6,1.6-0.5,1.9l0,0c-0.5,0.1-1.2,0-1.6-0.2l0,0
				c-0.9-0.6-0.6-1.6,0.5-1.9l0,0C64.6,79.5,65.2,79.6,65.6,79.8z"/>
			<path id="XMLID_17059_" class="st74" d="M54,91.3L54,91.3c0.9,0.6,0.6,1.6-0.5,1.9l0,0c-0.5,0.1-1.2,0-1.6-0.2l0,0
				c-0.9-0.6-0.6-1.6,0.5-1.9l0,0C52.9,91,53.5,91.1,54,91.3z"/>
			<path id="XMLID_17058_" class="st74" d="M65.4,93.5L65.4,93.5c0.9,0.6,0.6,1.6-0.5,1.9l0,0c-0.5,0.1-1.2,0-1.6-0.2l0,0
				c-0.9-0.6-0.6-1.6,0.5-1.9l0,0C64.4,93.2,65,93.2,65.4,93.5z"/>
			<path id="XMLID_17057_" class="st74" d="M73.1,85.8L73.1,85.8c0.9,0.6,0.6,1.6-0.5,1.9l0,0c-0.5,0.1-1.2,0-1.6-0.2l0,0
				c-0.9-0.6-0.6-1.6,0.5-1.9l0,0C72,85.5,72.6,85.6,73.1,85.8z"/>
			<path id="XMLID_17056_" class="st30" d="M61,86l-0.7-0.5l-8.5,4.4c0,0,0,0,0,0l-0.1,0l0,0c-0.7,0.4-0.7,1.2,0,1.7l0,0
				c0.4,0.3,1,0.3,1.6,0.2l0,0c0.4-0.1,0.6-0.2,0.8-0.4L61,86z"/>
			<path id="XMLID_17055_" class="st30" d="M61.1,84.9L53,80.3l0,0c-0.4-0.2-1-0.3-1.5-0.1l0,0c-1.2,0.3-1.5,1.3-0.5,1.9l0,0
				c0.2,0.1,0.5,0.2,0.8,0.3l8.6,3.2L61.1,84.9z"/>
			<path id="XMLID_17054_" class="st30" d="M66.2,79.4L66.2,79.4c0.1-0.4-0.1-0.8-0.5-1l0,0c-0.4-0.3-1-0.3-1.6-0.2l0,0
				c-0.6,0.1-1,0.5-1.1,0.9l0,0l0,0c0,0,0,0.1,0,0.1L61,85.1l0.7,0l4.3-5.4C66.1,79.6,66.2,79.5,66.2,79.4L66.2,79.4z"/>
			<path id="XMLID_17053_" class="st30" d="M73.1,84.4c-0.4-0.2-0.9-0.3-1.4-0.3l0,0l-10.2,0.9l0.2,0.7l9.9,0.5c0.2,0,0.3,0,0.5,0
				l0.1,0l0,0c0.1,0,0.2,0,0.3,0C73.7,86,74,84.9,73.1,84.4z"/>
			<path id="XMLID_17052_" class="st30" d="M65.9,92.5L65.9,92.5L65.9,92.5c0-0.1,0-0.1-0.1-0.1l-4.3-7.1l-0.6,0.1l1.8,7.4l0,0
				c0,0.3,0.2,0.6,0.6,0.8l0,0c0.4,0.3,1,0.3,1.6,0.2C65.8,93.7,66.1,93.1,65.9,92.5z"/>
			<path id="XMLID_17051_" class="st30" d="M62.2,84.6L62.2,84.6c0.9,0.6,0.6,1.6-0.5,1.9l0,0c-0.5,0.1-1.2,0-1.6-0.2l0,0
				c-0.9-0.6-0.6-1.6,0.5-1.9h0C61.2,84.3,61.8,84.4,62.2,84.6z"/>
			<path id="XMLID_17050_" class="st30" d="M61,86l-0.7-0.5l-8.5,4.4c0,0,0,0,0,0l-0.1,0l0,0c-0.7,0.4-0.7,1.2,0,1.7l0,0
				c0.4,0.3,1,0.3,1.6,0.2l0,0c0.4-0.1,0.6-0.2,0.8-0.4L61,86z"/>
			<path id="XMLID_17049_" class="st30" d="M61.1,84.9L53,80.3l0,0c-0.4-0.2-1-0.3-1.5-0.1l0,0c-1.2,0.3-1.5,1.3-0.5,1.9l0,0
				c0.2,0.1,0.5,0.2,0.8,0.3l8.6,3.2L61.1,84.9z"/>
			<path id="XMLID_17048_" class="st30" d="M66.2,79.4L66.2,79.4c0.1-0.4-0.1-0.8-0.5-1l0,0c-0.4-0.3-1-0.3-1.6-0.2l0,0
				c-0.6,0.1-1,0.5-1.1,0.9l0,0l0,0c0,0,0,0.1,0,0.1L61,85.1l0.7,0l4.3-5.4C66.1,79.6,66.2,79.5,66.2,79.4L66.2,79.4z"/>
			<path id="XMLID_17047_" class="st30" d="M73.1,84.4c-0.4-0.2-0.9-0.3-1.4-0.3l0,0l-10.2,0.9l0.2,0.7l9.9,0.5c0.2,0,0.3,0,0.5,0
				l0.1,0l0,0c0.1,0,0.2,0,0.3,0C73.7,86,74,84.9,73.1,84.4z"/>
			<path id="XMLID_17046_" class="st30" d="M65.9,92.5L65.9,92.5L65.9,92.5c0-0.1,0-0.1-0.1-0.1l-4.3-7.1l-0.6,0.1l1.8,7.4l0,0
				c0,0.3,0.2,0.6,0.6,0.8l0,0c0.4,0.3,1,0.3,1.6,0.2C65.8,93.7,66.1,93.1,65.9,92.5z"/>
			<path id="XMLID_17045_" class="st73" d="M73.1,83.6c-0.4-0.2-0.9-0.3-1.4-0.3l0,0l-9.1,0.8c-0.1-0.1-0.2-0.2-0.3-0.3l3.8-4.2
				c0-0.1,0.1-0.2,0.1-0.2l0,0h0c0-0.1,0-0.2,0-0.2c0-0.1,0-0.7,0-0.8c0-0.3-0.2-0.6-0.6-0.8c-0.4-0.3-1-0.3-1.6-0.2l0,0
				c-0.6,0.1-1,0.5-1.1,0.9h0l0,0c0,0,0,0.1,0,0.1l-1.9,5.1c-0.1,0-0.3,0-0.4,0.1h0c-0.1,0-0.1,0-0.2,0.1L53,79.5l0,0
				c-0.4-0.2-1-0.3-1.5-0.1c-0.7,0.2-1,0.5-1.1,0.9c0,0.2,0,0.7,0,0.9c0,0.3,0.2,0.6,0.6,0.8l0,0c0.2,0.1,0.5,0.2,0.8,0.3l7.8,2.9
				l-7.6,4c0,0,0,0,0,0l-0.1,0l0,0c-0.3,0.2-0.5,0.5-0.5,0.8c0,0.1,0,0.7,0,0.9c0,0.3,0.2,0.5,0.5,0.7l0,0c0.4,0.3,1,0.3,1.6,0.2
				l0,0c0.4-0.1,0.6-0.2,0.8-0.4l6.2-4.9c0.2,0.1,0.5,0.1,0.7,0.1l1.6,6.3l0,0c0,0.3,0.2,0.6,0.6,0.8c0.4,0.3,1,0.3,1.6,0.2
				c0.7-0.2,1-0.6,1.1-1c0-0.1,0-0.7,0-0.9c0-0.1,0-0.2-0.1-0.3l0,0l0,0c0,0,0-0.1,0-0.1l-3.4-5.5c0.1-0.1,0.2-0.2,0.3-0.3l8.9,0.5
				c0.2,0,0.3,0,0.5,0l0.1,0l0,0c0.1,0,0.2,0,0.3,0c0.7-0.2,1.1-0.6,1.1-1c0-0.1,0-0.7,0-0.9C73.6,84.1,73.4,83.8,73.1,83.6z"/>
			<path id="XMLID_17044_" class="st75" d="M73.1,83.6c-0.4-0.2-0.9-0.3-1.4-0.3l0,0l-9.1,0.8c-0.1-0.1-0.2-0.2-0.4-0.3l0,0
				c-0.1,0-0.2-0.1-0.2-0.1l4.1-4.8c0-0.1,0.1-0.2,0.1-0.2l0,0h0c0.1-0.4-0.1-0.8-0.5-1c-0.4-0.3-1-0.3-1.6-0.2l0,0
				c-0.6,0.1-1,0.5-1.1,0.9h0l0,0c0,0,0,0.1,0,0.1l-1.9,5.1c-0.1,0-0.3,0-0.4,0.1h0c-0.1,0-0.1,0-0.2,0.1L53,79.5l0,0
				c-0.4-0.2-1-0.3-1.5-0.1c-1.2,0.3-1.5,1.3-0.5,1.9l0,0c0.2,0.1,0.5,0.2,0.8,0.3l7.8,2.9c-0.1,0.2-0.1,0.4,0,0.7l-7.8,4
				c0,0,0,0,0,0l-0.1,0l0,0c-0.7,0.4-0.7,1.2,0,1.7l0,0c0.4,0.3,1,0.3,1.6,0.2l0,0c0.4-0.1,0.6-0.2,0.8-0.4l6.2-4.9
				c0.2,0.1,0.5,0.1,0.7,0.1l1.6,6.3l0,0c0,0.3,0.2,0.6,0.6,0.8c0.4,0.3,1,0.3,1.6,0.2c0.9-0.2,1.3-0.9,1-1.4l0,0l0,0
				c0,0,0-0.1,0-0.1l-3.7-6.1c0.3-0.1,0.5-0.3,0.6-0.6l8.9,0.5c0.2,0,0.3,0,0.5,0l0.1,0l0,0c0.1,0,0.2,0,0.3,0
				C73.7,85.2,74,84.2,73.1,83.6z"/>
		</g>
		<path id="XMLID_17042_" class="st4" d="M61.2,67.7L60,68.4c0,0,0,15.7,0,16.1c0,0.4,0.4,0.9,1.2,0.9c0.8,0,1.2-0.5,1.2-0.9
			c0-0.4,0-16.1,0-16.1L61.2,67.7z"/>
		<path id="XMLID_17041_" class="st76" d="M61.2,62.4L60,63.1c0,0,0,15.7,0,16.1c0,0.4,0.4,0.9,1.2,0.9c0.8,0,1.2-0.5,1.2-0.9
			c0-0.4,0-16.1,0-16.1L61.2,62.4z"/>
		<path id="XMLID_17040_" class="st73" d="M69.8,66.5l-5.8-4c-2.7-1.8-6.2-2-9-0.3l-4.5,2.6c-1.2,0.7-1.7,1.8-1.8,2.9
			c0,0.4,0,2,0,2.4c0.1,1.2,0.8,2.4,2.1,3l7.8,3.6c2.5,1.2,5.5,1.1,8-0.1l3.1-1.8c0.9-0.7,1.4-1.6,1.7-2.5c0.1-0.6,0.1-2.7,0.1-3.1
			C71.3,68.1,70.8,67.1,69.8,66.5z"/>
		<path id="XMLID_17039_" class="st75" d="M64.1,62.4l5.8,4c2.2,1.5,2.1,4.8-0.2,6.1l-3.1,1.8c-2.4,1.4-5.4,1.5-7.9,0.3l-7.8-3.6
			c-2.6-1.3-2.8-5-0.2-6.4l4.5-2.6C57.9,60.5,61.4,60.6,64.1,62.4z"/>
		<path id="XMLID_17038_" class="st77" d="M64.1,61.6l5.8,4c2.2,1.5,2.1,4.8-0.2,6.1l-3.1,1.8c-2.4,1.4-5.4,1.5-7.9,0.3l-7.8-3.6
			c-2.6-1.3-2.8-5-0.2-6.4l4.5-2.6C57.9,59.7,61.4,59.8,64.1,61.6z"/>
		<path id="XMLID_17037_" class="st30" d="M64.1,61.6l5.8,4c2.2,1.5,2.1,4.8-0.2,6.1l-3.1,1.8c-2.4,1.4-5.4,1.5-7.9,0.3l-7.8-3.6"/>
		<g id="XMLID_17032_">
			<path id="XMLID_17036_" class="st78" d="M75.4,49.5c-1-0.4-2.1-0.5-3.3-0.1l-3.9,1.5c-3.1,1.2-5.5,3.8-6.3,7.1
				c0,0-0.2,1.2-0.8,3.2c-0.6,2-2.6,4.4-3.1,6c-0.5,1.6,0.2,3.2,1.3,4.2c0.7,0.6,3.5,2,4.1,2.4c1,0.5,2.2,0.6,3.5,0.2l5.8-2.2
				c3.6-1.4,6.2-4.7,6.5-8.6l0.6-8.4c0.1-1.5-0.5-2.9-1.6-3.7C77.5,50.6,76.1,49.8,75.4,49.5z"/>
			<path id="XMLID_17035_" class="st79" d="M78.4,62.5l0.6-8.4c0.3-3.2-2.9-5.6-5.9-4.4l-3.9,1.5c-3.1,1.2-5.5,3.8-6.3,7.1l-2.6,9.9
				c-0.8,3.4,2.5,6.3,5.7,5.1l5.8-2.2C75.5,69.8,78,66.4,78.4,62.5z"/>
			<path id="XMLID_17034_" class="st73" d="M79.1,63.2l0.6-8.4c0.3-3.2-2.9-5.6-5.8-4.4l-3.9,1.5c-3.1,1.2-5.5,3.8-6.3,7.1L61,68.9
				c-0.8,3.4,2.5,6.3,5.7,5.1l5.8-2.2C76.2,70.4,78.7,67,79.1,63.2z"/>
			<path id="XMLID_17033_" class="st72" d="M69.9,51.9c-3.1,1.2-5.5,3.8-6.3,7.1L61,68.9c-0.8,3.4,2.5,6.3,5.7,5.1l5.8-2.2"/>
		</g>
		<g id="XMLID_17024_">
			<g id="XMLID_17029_">
				<path id="XMLID_17031_" class="st4" d="M56.5,70c0-0.2-0.1-0.4-0.4-0.6l0,0c-0.3-0.2-0.8-0.3-1.2-0.2v0C54.3,69.3,54,69.6,54,70
					c0,0.2,0,5.3,0,5.5c0,0.2,0.1,0.5,0.4,0.6c0.3,0.2,0.8,0.3,1.2,0.2l0,0c0.5-0.1,0.8-0.4,0.8-0.8V70z"/>
				<path class="st76" d="M56.1,69.3c-0.3-0.2-0.8-0.3-1.2-0.2v0C54.3,69.3,54,69.6,54,70c0,0,0,0.2,0,0.6c0,1.1,0,2.1,0,2.2
					c0,0.2,0.1,0.5,0.4,0.6c0.3,0.2,0.8,0.3,1.2,0.2c0.5-0.1,0.8-0.4,0.8-0.8V70C56.5,69.7,56.3,69.5,56.1,69.3z"/>
				<path id="XMLID_17030_" class="st10" d="M56.1,69.3L56.1,69.3c0.7,0.4,0.5,1.2-0.4,1.4l0,0c-0.4,0.1-0.9,0-1.2-0.2l0,0
					c-0.7-0.4-0.5-1.2,0.4-1.4l0,0C55.3,69.1,55.7,69.1,56.1,69.3z"/>
			</g>
			<path id="XMLID_17028_" class="st72" d="M56.5,69.1L56.5,69.1c0,0-5.8-3.4-5.8-3.4l0,0c-0.5-0.3-1.2-0.4-1.8-0.2l0,0
				c-1.3,0.3-1.7,1.5-0.6,2.1c0,0,5.8,3.4,5.8,3.4l0,0c0.5,0.3,1.2,0.4,1.8,0.2l0,0C57.2,70.9,57.5,69.7,56.5,69.1z"/>
			<path id="XMLID_17027_" class="st73" d="M57.3,69.2c0-0.3-0.2-0.7-0.7-0.9l0,0c0,0-6.1-3.6-6.1-3.6l0,0c-0.5-0.3-1.2-0.4-1.9-0.2
				l0,0c-0.8,0.2-1.2,0.6-1.3,1.1c0,0.1,0,0.5,0,0.5c0,0.3,0.2,0.7,0.7,0.9c0,0,6.1,3.5,6.1,3.6c0.5,0.3,1.2,0.4,1.9,0.2l0,0
				c0.8-0.2,1.2-0.6,1.3-1.1C57.3,69.6,57.3,69.2,57.3,69.2z"/>
			<path id="XMLID_17026_" class="st30" d="M56.5,67.7L56.5,67.7c0,0-5.8-3.4-5.8-3.4l0,0c-0.5-0.3-1.2-0.4-1.8-0.2l0,0
				c-1.3,0.3-1.7,1.5-0.6,2.1c0,0,5.8,3.4,5.8,3.4l0,0c0.5,0.3,1.2,0.4,1.8,0.2l0,0C57.2,69.5,57.5,68.3,56.5,67.7z"/>
			<path id="XMLID_17025_" class="st63" d="M48.2,66.2c0,0,5.8,3.4,5.8,3.4l0,0c0.5,0.3,1.2,0.4,1.8,0.2l0,0
				c1.3-0.3,1.7-1.5,0.6-2.1l0,0"/>
		</g>
	</g>
</g>
</svg>
